<?xml version="1.0" encoding="UTF-8" standalone="no"?>
<!DOCTYPE score-partwise PUBLIC "-//Recordare//DTD MusicXML 2.0 Partwise//EN" "http://www.musicxml.org/dtds/partwise.dtd">
<score-partwise version="2.0">
	<work>
		<work-title>TEMA DO FILME &quot;GHOST&quot;</work-title>
	</work>
	<identification>
		<encoding>
			<software>PDFtoMusic Pro v1.4.2c Build 11B5B (c) Myriad - http://www.myriad-online.com</software>
			<?PDFtoMusic Document type 0100-vers L 00000000?>
			<supports attribute="new-system" element="print" type="yes" value="yes"/>
			<supports attribute="new-page" element="print" type="yes" value="yes"/>
		</encoding>
	</identification>
	<defaults>
		<scaling>
			<millimeters>8.549664</millimeters>
			<tenths>40</tenths>
		</scaling>
		<page-layout>
			<page-height>1389.710</page-height>
			<page-width>982.040</page-width>
			<page-margins type="both">
				<left-margin>46.785</left-margin>
				<right-margin>46.785</right-margin>
				<top-margin>46.785</top-margin>
				 <bottom-margin>46.785</bottom-margin>
			</page-margins>
		</page-layout>
		<appearance>
			<line-width type="stem">0.7922</line-width>
			<line-width type="beam">5.1492</line-width>
			<line-width type="staff">0.8252</line-width>
			<line-width type="light barline">0.7927</line-width>
			<line-width type="heavy barline">6.9970</line-width>
			<line-width type="tuplet bracket">5.1488</line-width>
		</appearance>
	</defaults>
	<credit page="1">
		<credit-words  default-x="266.575" default-y="1280.855" justify="left" valign="baseline" font-family="Times New Roman" font-size="24" font-weight="normal" font-style="normal">TEMA DO FILME &quot;GHOST&quot;</credit-words>
	</credit>
	<part-list>
		<score-part id="P1">
			<part-name></part-name>
			<score-instrument id="P1-I1">
				<instrument-name>Instrument 1</instrument-name>
			</score-instrument>
			<midi-instrument id="P1-I1">
				<midi-channel>1</midi-channel>
				<midi-bank>1</midi-bank>
				<midi-program>1</midi-program>
				<volume>50</volume>
				<pan>0</pan>
			</midi-instrument>
		</score-part>
	</part-list>
	<part id="P1">
		<!--==========================[1,1]=============================-->
		<measure number="1" width="230">
			<print new-system="yes">
				<system-layout>
					<system-margins>
						<left-margin>30.464</left-margin>
						<right-margin>1.650</right-margin>
					</system-margins>
					<top-system-distance>140.893</top-system-distance>
				</system-layout>
			</print>
			<attributes>
				<divisions>6720</divisions>
				<time>
					<beats>4</beats>
					<beat-type>4</beat-type>
				</time>
				<clef number="1">
					<sign>G</sign>
					<line>2</line>
				</clef>
				<staff-details number="1" print-object="yes">
					<staff-lines>5</staff-lines>
					<staff-size>100.00</staff-size>
				</staff-details>
			</attributes>
			<note>
				<pitch>
					<step>C</step>
					<octave>5</octave>
				</pitch>
				<duration>20160</duration>
				<voice>1</voice>
				<type>half</type>
				<dot/>
				<stem default-y="-50.30">down</stem>
			</note>
			<harmony font-family="Times New Roman" font-size="12" font-weight="normal" font-style="normal" relative-x="6.93" default-y="19.41">
				<root>
					<root-step>C</root-step>
				</root>
				<kind>major</kind>
				<offset>-20160.00</offset>
			</harmony>
			<note>
				<pitch>
					<step>D</step>
					<octave>5</octave>
				</pitch>
				<duration>6720</duration>
				<voice>1</voice>
				<type>quarter</type>
				<stem default-y="-45.15">down</stem>
			</note>
		</measure>
		<!--==========================[1,2]=============================-->
		<measure number="2" width="154">
			<note>
				<pitch>
					<step>C</step>
					<octave>5</octave>
				</pitch>
				<duration>13440</duration>
				<tie type="start"/>
				<voice>1</voice>
				<type>half</type>
				<stem default-y="-50.30">down</stem>
				<notations>
					<tied type="start" number="1" placement="above" orientation="over"/>
				</notations>
			</note>
			<harmony font-family="Times New Roman" font-size="12" font-weight="normal" font-style="normal" relative-x="12.95" default-y="19.41">
				<root>
					<root-step>A</root-step>
				</root>
				<kind>minor</kind>
				<offset>-13440.00</offset>
			</harmony>
			<note>
				<pitch>
					<step>C</step>
					<octave>5</octave>
				</pitch>
				<duration>6720</duration>
				<tie type="stop"/>
				<voice>1</voice>
				<type>quarter</type>
				<stem default-y="-50.30">down</stem>
				<notations>
					<tied type="stop" number="1"/>
				</notations>
			</note>
			<note>
				<pitch>
					<step>D</step>
					<octave>5</octave>
				</pitch>
				<duration>3360</duration>
				<voice>1</voice>
				<type>eighth</type>
				<stem default-y="-45.15">down</stem>
				<beam number="1">begin</beam>
			</note>
			<note>
				<pitch>
					<step>E</step>
					<octave>5</octave>
				</pitch>
				<duration>3360</duration>
				<voice>1</voice>
				<type>eighth</type>
				<stem default-y="-40.40">down</stem>
				<beam number="1">end</beam>
				<notations>
					<slur type="start" number="1" placement="above" orientation="over"/>
				</notations>
			</note>
		</measure>
		<!--==========================[1,3]=============================-->
		<measure number="3" width="155">
			<note>
				<pitch>
					<step>E</step>
					<octave>5</octave>
				</pitch>
				<duration>3360</duration>
				<voice>1</voice>
				<type>eighth</type>
				<stem default-y="-40.39">down</stem>
				<notations>
					<slur type="stop" number="1"/>
				</notations>
			</note>
			<harmony font-family="Times New Roman" font-size="12" font-weight="normal" font-style="normal" relative-x="-4.14" default-y="19.41">
				<root>
					<root-step>F</root-step>
				</root>
				<kind>major</kind>
			</harmony>
			<note>
				<pitch>
					<step>C</step>
					<octave>5</octave>
				</pitch>
				<duration>10080</duration>
				<tie type="start"/>
				<voice>1</voice>
				<type>quarter</type>
				<dot/>
				<stem default-y="-50.30">down</stem>
				<notations>
					<tied type="start" number="1" placement="above" orientation="over"/>
				</notations>
			</note>
			<note>
				<pitch>
					<step>C</step>
					<octave>5</octave>
				</pitch>
				<duration>6720</duration>
				<tie type="stop"/>
				<voice>1</voice>
				<type>quarter</type>
				<stem default-y="-50.30">down</stem>
				<notations>
					<tied type="stop" number="1"/>
				</notations>
			</note>
			<note>
				<pitch>
					<step>C</step>
					<octave>5</octave>
				</pitch>
				<duration>6720</duration>
				<voice>1</voice>
				<type>quarter</type>
				<stem default-y="-50.30">down</stem>
			</note>
		</measure>
		<!--==========================[1,4]=============================-->
		<measure number="4" width="155">
			<note>
				<pitch>
					<step>G</step>
					<octave>4</octave>
				</pitch>
				<duration>6720</duration>
				<voice>1</voice>
				<type>quarter</type>
				<stem default-y="4.75">up</stem>
			</note>
			<harmony font-family="Times New Roman" font-size="12" font-weight="normal" font-style="normal" relative-x="3.52" default-y="19.41">
				<root>
					<root-step>G</root-step>
				</root>
				<kind>dominant</kind>
				<offset>-6720.00</offset>
			</harmony>
			<note>
				<pitch>
					<step>B</step>
					<octave>4</octave>
				</pitch>
				<duration>6720</duration>
				<voice>1</voice>
				<type>quarter</type>
				<stem default-y="-55.05">down</stem>
			</note>
			<note>
				<pitch>
					<step>D</step>
					<octave>5</octave>
				</pitch>
				<duration>6720</duration>
				<voice>1</voice>
				<type>quarter</type>
				<stem default-y="-45.15">down</stem>
			</note>
			<note>
				<pitch>
					<step>E</step>
					<octave>5</octave>
				</pitch>
				<duration>6720</duration>
				<voice>1</voice>
				<type>quarter</type>
				<stem default-y="-40.40">down</stem>
			</note>
		</measure>
		<!--==========================[1,5]=============================-->
		<measure number="5" width="160">
			<harmony font-family="Times New Roman" font-size="12" font-weight="normal" font-style="normal" relative-x="-6.99" default-y="19.41">
				<root>
					<root-step>C</root-step>
				</root>
				<kind>major</kind>
			</harmony>
			<note>
				<pitch>
					<step>C</step>
					<octave>5</octave>
				</pitch>
				<duration>20160</duration>
				<voice>1</voice>
				<type>half</type>
				<dot/>
				<stem default-y="-50.30">down</stem>
			</note>
			<note>
				<pitch>
					<step>D</step>
					<octave>5</octave>
				</pitch>
				<duration>6720</duration>
				<voice>1</voice>
				<type>quarter</type>
				<stem default-y="-45.15">down</stem>
			</note>
		</measure>
		<!--==========================[1,6]=============================-->
		<measure number="6" width="207">
			<print new-system="yes">
				<system-layout>
					<system-margins>
						<left-margin>30.462</left-margin>
						<right-margin>1.650</right-margin>
					</system-margins>
					<system-distance>70.513</system-distance>
				</system-layout>
			</print>
			<attributes>
				<staff-details number="1" print-object="yes">
				</staff-details>
			</attributes>
			<harmony font-family="Times New Roman" font-size="12" font-weight="normal" font-style="normal" relative-x="-9.12" default-y="19.42">
				<root>
					<root-step>A</root-step>
				</root>
				<kind>minor</kind>
			</harmony>
			<note>
				<pitch>
					<step>C</step>
					<octave>5</octave>
				</pitch>
				<duration>13440</duration>
				<tie type="start"/>
				<voice>1</voice>
				<type>half</type>
				<stem default-y="-50.29">down</stem>
				<notations>
					<tied type="start" number="1" placement="above" orientation="over"/>
				</notations>
			</note>
			<note>
				<pitch>
					<step>C</step>
					<octave>5</octave>
				</pitch>
				<duration>6720</duration>
				<tie type="start"/>
				<tie type="stop"/>
				<voice>1</voice>
				<type>quarter</type>
				<stem default-y="-50.29">down</stem>
				<notations>
					<tied type="start" number="2" placement="above" orientation="over"/>
					<tied type="stop" number="1"/>
				</notations>
			</note>
			<note>
				<pitch>
					<step>C</step>
					<octave>5</octave>
				</pitch>
				<duration>2240</duration>
				<tie type="stop"/>
				<voice>1</voice>
				<type>eighth</type>
				<time-modification>
					<actual-notes>3</actual-notes>
					<normal-notes>2</normal-notes>
				</time-modification>
				<stem default-y="19.42">up</stem>
				<beam number="1">begin</beam>
				<notations>
					<tied type="stop" number="2"/>
					<tuplet type="start" bracket="no" />
				</notations>
			</note>
			<note>
				<pitch>
					<step>E</step>
					<octave>4</octave>
				</pitch>
				<duration>2240</duration>
				<voice>1</voice>
				<type>eighth</type>
				<time-modification>
					<actual-notes>3</actual-notes>
					<normal-notes>2</normal-notes>
				</time-modification>
				<stem default-y="13.88">up</stem>
				<beam number="1">continue</beam>
			</note>
			<note>
				<pitch>
					<step>F</step>
					<octave>4</octave>
				</pitch>
				<duration>2240</duration>
				<voice>1</voice>
				<type>eighth</type>
				<time-modification>
					<actual-notes>3</actual-notes>
					<normal-notes>2</normal-notes>
				</time-modification>
				<stem default-y="9.92">up</stem>
				<beam number="1">end</beam>
				<notations>
					<tuplet type="stop"/>
				</notations>
			</note>
		</measure>
		<!--==========================[1,7]=============================-->
		<measure number="7" width="70">
			<note>
				<pitch>
					<step>G</step>
					<octave>4</octave>
				</pitch>
				<duration>26880</duration>
				<voice>1</voice>
				<type>whole</type>
				<stem>none</stem>
				<notations>
					<slur type="start" number="1" placement="below" orientation="under"/>
				</notations>
			</note>
			<harmony font-family="Times New Roman" font-size="12" font-weight="normal" font-style="normal" relative-x="3.62" default-y="19.42">
				<root>
					<root-step>G</root-step>
				</root>
				<kind>dominant</kind>
				<offset>-26880.00</offset>
			</harmony>
		</measure>
		<!--==========================[1,8]=============================-->
		<measure number="8" width="114">
			<note>
				<pitch>
					<step>G</step>
					<octave>4</octave>
				</pitch>
				<duration>20160</duration>
				<voice>1</voice>
				<type>half</type>
				<dot/>
				<stem default-y="4.76">up</stem>
				<notations>
					<slur type="stop" number="1"/>
				</notations>
			</note>
			<note>
				<rest>
				</rest>
				<duration>6720</duration>
				<voice>1</voice>
				<type>quarter</type>
			</note>
		</measure>
		<!--==========================[1,9]=============================-->
		<measure number="9" width="113">
			<note>
				<pitch>
					<step>C</step>
					<octave>5</octave>
				</pitch>
				<duration>20160</duration>
				<voice>1</voice>
				<type>half</type>
				<dot/>
				<stem default-y="-50.29">down</stem>
			</note>
			<harmony font-family="Times New Roman" font-size="12" font-weight="normal" font-style="normal" relative-x="3.09" default-y="19.42">
				<root>
					<root-step>C</root-step>
				</root>
				<kind>major</kind>
				<offset>-20160.00</offset>
			</harmony>
			<note>
				<pitch>
					<step>D</step>
					<octave>5</octave>
				</pitch>
				<duration>6720</duration>
				<voice>1</voice>
				<type>quarter</type>
				<stem default-y="-45.14">down</stem>
			</note>
		</measure>
		<!--==========================[1,10]=============================-->
		<measure number="10" width="114">
			<harmony font-family="Times New Roman" font-size="12" font-weight="normal" font-style="normal" relative-x="-11.04" default-y="19.42">
				<root>
					<root-step>A</root-step>
				</root>
				<kind>minor</kind>
			</harmony>
			<note>
				<pitch>
					<step>C</step>
					<octave>5</octave>
				</pitch>
				<duration>20160</duration>
				<voice>1</voice>
				<type>half</type>
				<dot/>
				<stem default-y="-50.29">down</stem>
			</note>
			<note>
				<pitch>
					<step>D</step>
					<octave>5</octave>
				</pitch>
				<duration>6720</duration>
				<voice>1</voice>
				<type>quarter</type>
				<stem default-y="-45.14">down</stem>
			</note>
		</measure>
		<!--==========================[1,11]=============================-->
		<measure number="11" width="113">
			<note>
				<pitch>
					<step>E</step>
					<octave>5</octave>
				</pitch>
				<duration>3360</duration>
				<voice>1</voice>
				<type>eighth</type>
				<stem default-y="-40.39">down</stem>
				<beam number="1">begin</beam>
			</note>
			<harmony font-family="Times New Roman" font-size="12" font-weight="normal" font-style="normal" relative-x="4.02" default-y="19.42">
				<root>
					<root-step>F</root-step>
				</root>
				<kind>major</kind>
				<offset>-3360.00</offset>
			</harmony>
			<note>
				<pitch>
					<step>C</step>
					<octave>5</octave>
				</pitch>
				<duration>3360</duration>
				<tie type="start"/>
				<voice>1</voice>
				<type>eighth</type>
				<stem default-y="-49.89">down</stem>
				<beam number="1">end</beam>
				<notations>
					<tied type="start" number="1" placement="above" orientation="over"/>
				</notations>
			</note>
			<note>
				<pitch>
					<step>C</step>
					<octave>5</octave>
				</pitch>
				<duration>13440</duration>
				<tie type="stop"/>
				<voice>1</voice>
				<type>half</type>
				<stem default-y="-50.29">down</stem>
				<notations>
					<tied type="stop" number="1"/>
				</notations>
			</note>
			<note>
				<pitch>
					<step>C</step>
					<octave>5</octave>
				</pitch>
				<duration>6720</duration>
				<voice>1</voice>
				<type>quarter</type>
				<stem default-y="-50.29">down</stem>
			</note>
		</measure>
		<!--==========================[1,12]=============================-->
		<measure number="12" width="122">
			<harmony font-family="Times New Roman" font-size="12" font-weight="normal" font-style="normal" relative-x="-6.08" default-y="19.42">
				<root>
					<root-step>G</root-step>
				</root>
				<kind>dominant</kind>
			</harmony>
			<note>
				<pitch>
					<step>G</step>
					<octave>4</octave>
				</pitch>
				<duration>6720</duration>
				<voice>1</voice>
				<type>quarter</type>
				<stem default-y="4.76">up</stem>
			</note>
			<note>
				<pitch>
					<step>B</step>
					<octave>4</octave>
				</pitch>
				<duration>6720</duration>
				<voice>1</voice>
				<type>quarter</type>
				<stem default-y="-55.04">down</stem>
			</note>
			<note>
				<pitch>
					<step>D</step>
					<octave>5</octave>
				</pitch>
				<duration>6720</duration>
				<voice>1</voice>
				<type>quarter</type>
				<stem default-y="-45.14">down</stem>
			</note>
			<note>
				<pitch>
					<step>E</step>
					<octave>5</octave>
				</pitch>
				<duration>6720</duration>
				<voice>1</voice>
				<type>quarter</type>
				<stem default-y="-40.39">down</stem>
			</note>
		</measure>
		<!--==========================[1,13]=============================-->
		<measure number="13" width="163">
			<print new-system="yes">
				<system-layout>
					<system-margins>
						<left-margin>32.444</left-margin>
						<right-margin>1.650</right-margin>
					</system-margins>
					<system-distance>59.018</system-distance>
				</system-layout>
			</print>
			<attributes>
				<staff-details number="1" print-object="yes">
				</staff-details>
			</attributes>
			<note>
				<pitch>
					<step>C</step>
					<octave>5</octave>
				</pitch>
				<duration>20160</duration>
				<voice>1</voice>
				<type>half</type>
				<dot/>
				<stem default-y="-50.30">down</stem>
			</note>
			<harmony font-family="Times New Roman" font-size="12" font-weight="normal" font-style="normal" relative-x="0.69" default-y="19.41">
				<root>
					<root-step>C</root-step>
				</root>
				<kind>major</kind>
				<offset>-20160.00</offset>
			</harmony>
			<note>
				<pitch>
					<step>D</step>
					<octave>5</octave>
				</pitch>
				<duration>6720</duration>
				<voice>1</voice>
				<type>quarter</type>
				<stem default-y="-45.15">down</stem>
			</note>
		</measure>
		<!--==========================[1,14]=============================-->
		<measure number="14" width="114">
			<harmony font-family="Times New Roman" font-size="12" font-weight="normal" font-style="normal" relative-x="-0.97" default-y="19.41">
				<root>
					<root-step>A</root-step>
				</root>
				<kind>minor</kind>
			</harmony>
			<note>
				<pitch>
					<step>C</step>
					<octave>5</octave>
				</pitch>
				<duration>20160</duration>
				<voice>1</voice>
				<type>half</type>
				<dot/>
				<stem default-y="-50.30">down</stem>
			</note>
			<note>
				<pitch>
					<step>C</step>
					<octave>4</octave>
				</pitch>
				<duration>6720</duration>
				<voice>1</voice>
				<type>quarter</type>
				<stem default-y="-15.05">up</stem>
			</note>
		</measure>
		<!--==========================[1,15]=============================-->
		<measure number="15" width="113">
			<harmony font-family="Times New Roman" font-size="12" font-weight="normal" font-style="normal" relative-x="-6.45" default-y="19.42">
				<root>
					<root-step>G</root-step>
				</root>
				<kind>dominant</kind>
			</harmony>
			<note>
				<pitch>
					<step>G</step>
					<octave>4</octave>
				</pitch>
				<duration>26880</duration>
				<voice>1</voice>
				<type>whole</type>
				<stem>none</stem>
				<notations>
					<slur type="start" number="1" placement="below" orientation="under"/>
				</notations>
			</note>
		</measure>
		<!--==========================[1,16]=============================-->
		<measure number="16" width="114">
			<note>
				<pitch>
					<step>G</step>
					<octave>4</octave>
				</pitch>
				<duration>20160</duration>
				<voice>1</voice>
				<type>half</type>
				<dot/>
				<stem default-y="4.76">up</stem>
				<notations>
					<slur type="stop" number="1"/>
				</notations>
			</note>
			<note>
				<pitch>
					<step>F</step>
					<octave>5</octave>
				</pitch>
				<duration>6720</duration>
				<voice>1</voice>
				<type>quarter</type>
				<stem default-y="-35.24">down</stem>
			</note>
		</measure>
		<!--==========================[1,17]=============================-->
		<measure number="17" width="113">
			<harmony font-family="Times New Roman" font-size="12" font-weight="normal" font-style="normal" relative-x="-1.24" default-y="19.42">
				<root>
					<root-step>C</root-step>
				</root>
				<kind>major</kind>
			</harmony>
			<note>
				<pitch>
					<step>E</step>
					<octave>5</octave>
				</pitch>
				<duration>6720</duration>
				<voice>1</voice>
				<type>quarter</type>
				<stem default-y="-40.39">down</stem>
			</note>
			<note>
				<pitch>
					<step>C</step>
					<octave>5</octave>
				</pitch>
				<duration>3360</duration>
				<voice>1</voice>
				<type>eighth</type>
				<stem default-y="19.42">up</stem>
				<beam number="1">begin</beam>
			</note>
			<note>
				<pitch>
					<step>G</step>
					<octave>4</octave>
				</pitch>
				<duration>3360</duration>
				<tie type="start"/>
				<voice>1</voice>
				<type>eighth</type>
				<stem default-y="9.91">up</stem>
				<beam number="1">end</beam>
				<notations>
					<tied type="start" number="1" placement="below" orientation="under"/>
				</notations>
			</note>
			<note>
				<pitch>
					<step>G</step>
					<octave>4</octave>
				</pitch>
				<duration>13440</duration>
				<tie type="stop"/>
				<voice>1</voice>
				<type>half</type>
				<stem default-y="4.76">up</stem>
				<notations>
					<tied type="stop" number="1"/>
					<slur type="start" number="1" placement="below" orientation="under"/>
				</notations>
			</note>
		</measure>
		<!--==========================[1,18]=============================-->
		<measure number="18" width="114">
			<note>
				<pitch>
					<step>G</step>
					<octave>4</octave>
				</pitch>
				<duration>20160</duration>
				<voice>1</voice>
				<type>half</type>
				<dot/>
				<stem default-y="4.76">up</stem>
				<notations>
					<slur type="stop" number="1"/>
				</notations>
			</note>
			<note>
				<pitch>
					<step>D</step>
					<octave>5</octave>
				</pitch>
				<duration>6720</duration>
				<voice>1</voice>
				<type>quarter</type>
				<stem default-y="-45.14">down</stem>
			</note>
		</measure>
		<!--==========================[1,19]=============================-->
		<measure number="19" width="120">
			<harmony font-family="Times New Roman" font-size="12" font-weight="normal" font-style="normal" relative-x="-2.89" default-y="19.41">
				<root>
					<root-step>A</root-step>
				</root>
				<kind>minor</kind>
			</harmony>
			<note>
				<pitch>
					<step>C</step>
					<octave>5</octave>
				</pitch>
				<duration>10080</duration>
				<voice>1</voice>
				<type>quarter</type>
				<dot/>
				<stem default-y="-50.29">down</stem>
			</note>
			<note>
				<pitch>
					<step>G</step>
					<octave>4</octave>
				</pitch>
				<duration>3360</duration>
				<voice>1</voice>
				<type>eighth</type>
				<stem default-y="4.76">up</stem>
			</note>
			<note>
				<pitch>
					<step>E</step>
					<octave>4</octave>
				</pitch>
				<duration>13440</duration>
				<voice>1</voice>
				<type>half</type>
				<stem default-y="-5.14">up</stem>
				<notations>
					<slur type="start" number="1" placement="above" orientation="under"/>
				</notations>
			</note>
		</measure>
		<!--==========================[1,20]=============================-->
		<measure number="20" width="163">
			<print new-system="yes">
				<system-layout>
					<system-margins>
						<left-margin>32.444</left-margin>
						<right-margin>1.650</right-margin>
					</system-margins>
					<system-distance>55.847</system-distance>
				</system-layout>
			</print>
			<attributes>
				<staff-details number="1" print-object="yes">
				</staff-details>
			</attributes>
			<note>
				<pitch>
					<step>E</step>
					<octave>4</octave>
				</pitch>
				<duration>20160</duration>
				<voice>1</voice>
				<type>half</type>
				<dot/>
				<stem default-y="-5.14">up</stem>
				<notations>
					<slur type="stop" number="1"/>
				</notations>
			</note>
			<note>
				<pitch>
					<step>B</step>
					<octave>4</octave>
				</pitch>
				<duration>6720</duration>
				<voice>1</voice>
				<type>quarter</type>
				<stem default-y="-55.05">down</stem>
			</note>
		</measure>
		<!--==========================[1,21]=============================-->
		<measure number="21" width="114">
			<note>
				<pitch>
					<step>A</step>
					<octave>4</octave>
				</pitch>
				<duration>10080</duration>
				<voice>1</voice>
				<type>quarter</type>
				<dot/>
				<stem default-y="9.51">up</stem>
			</note>
			<harmony font-family="Times New Roman" font-size="12" font-weight="normal" font-style="normal" relative-x="11.70" default-y="19.41">
				<root>
					<root-step>F</root-step>
				</root>
				<kind>major</kind>
				<offset>-10080.00</offset>
			</harmony>
			<note>
				<pitch>
					<step>F</step>
					<octave>4</octave>
				</pitch>
				<duration>3360</duration>
				<voice>1</voice>
				<type>eighth</type>
				<stem default-y="-0.39">up</stem>
			</note>
			<note>
				<pitch>
					<step>D</step>
					<octave>4</octave>
				</pitch>
				<duration>13440</duration>
				<voice>1</voice>
				<type>half</type>
				<stem default-y="-10.29">up</stem>
				<notations>
					<slur type="start" number="1" placement="below" orientation="under"/>
				</notations>
			</note>
			<harmony font-family="Times New Roman" font-size="12" font-weight="normal" font-style="normal" relative-x="1.60" default-y="19.41">
				<root>
					<root-step>G</root-step>
				</root>
				<kind>dominant</kind>
				<offset>-13440.00</offset>
			</harmony>
		</measure>
		<!--==========================[1,22]=============================-->
		<measure number="22" width="70">
			<note>
				<pitch>
					<step>D</step>
					<octave>4</octave>
				</pitch>
				<duration>13440</duration>
				<voice>1</voice>
				<type>half</type>
				<stem default-y="-10.29">up</stem>
				<notations>
					<slur type="stop" number="1"/>
				</notations>
			</note>
			<note>
				<pitch>
					<step>D</step>
					<octave>5</octave>
				</pitch>
				<duration>13440</duration>
				<voice>1</voice>
				<type>half</type>
				<stem default-y="-45.14">down</stem>
			</note>
		</measure>
		<!--==========================[1,23]=============================-->
		<measure number="23" width="75">
			<note>
				<pitch>
					<step>C</step>
					<octave>5</octave>
				</pitch>
				<duration>26880</duration>
				<voice>1</voice>
				<type>whole</type>
				<stem>none</stem>
				<notations>
					<slur type="start" number="1" placement="above" orientation="over"/>
				</notations>
			</note>
			<harmony font-family="Times New Roman" font-size="12" font-weight="normal" font-style="normal" relative-x="8.95" default-y="19.41">
				<root>
					<root-step>C</root-step>
				</root>
				<kind>major</kind>
				<offset>-26880.00</offset>
			</harmony>
		</measure>
		<!--==========================[1,24]=============================-->
		<measure number="24" width="79">
			<note>
				<pitch>
					<step>C</step>
					<octave>5</octave>
				</pitch>
				<duration>20160</duration>
				<voice>1</voice>
				<type>half</type>
				<dot/>
				<stem default-y="-50.29">down</stem>
				<notations>
					<slur type="stop" number="1"/>
				</notations>
			</note>
			<note>
				<rest>
				</rest>
				<duration>6720</duration>
				<voice>1</voice>
				<type>quarter</type>
			</note>
		</measure>
		<!--==========================[1,25]=============================-->
		<measure number="25" width="184">
			<note>
				<pitch>
					<step>F</step>
					<octave>4</octave>
				</pitch>
				<duration>3360</duration>
				<voice>1</voice>
				<type>eighth</type>
				<stem default-y="9.51">up</stem>
				<beam number="1">begin</beam>
			</note>
			<harmony font-family="Times New Roman" font-size="12" font-weight="normal" font-style="normal" relative-x="11.70" default-y="19.42">
				<root>
					<root-step>F</root-step>
				</root>
				<kind>major</kind>
				<offset>-3360.00</offset>
			</harmony>
			<note>
				<pitch>
					<step>G</step>
					<octave>4</octave>
				</pitch>
				<duration>3360</duration>
				<voice>1</voice>
				<type>eighth</type>
				<stem default-y="13.08">up</stem>
				<beam number="1">continue</beam>
			</note>
			<note>
				<pitch>
					<step>A</step>
					<octave>4</octave>
				</pitch>
				<duration>3360</duration>
				<voice>1</voice>
				<type>eighth</type>
				<stem default-y="16.25">up</stem>
				<beam number="1">continue</beam>
			</note>
			<note>
				<pitch>
					<step>C</step>
					<octave>5</octave>
				</pitch>
				<duration>3360</duration>
				<voice>1</voice>
				<type>eighth</type>
				<stem default-y="19.42">up</stem>
				<beam number="1">end</beam>
			</note>
			<harmony font-family="Times New Roman" font-size="12" font-weight="normal" font-style="normal" relative-x="-8.36" default-y="19.41">
				<root>
					<root-step>E</root-step>
				</root>
				<kind>minor</kind>
			</harmony>
			<note>
				<pitch>
					<step>B</step>
					<octave>4</octave>
				</pitch>
				<duration>6720</duration>
				<tie type="start"/>
				<voice>1</voice>
				<type>quarter</type>
				<stem default-y="-55.05">down</stem>
				<notations>
					<tied type="start" number="1" placement="above" orientation="over"/>
				</notations>
			</note>
			<note>
				<pitch>
					<step>B</step>
					<octave>4</octave>
				</pitch>
				<duration>3360</duration>
				<tie type="stop"/>
				<voice>1</voice>
				<type>eighth</type>
				<stem default-y="-55.05">down</stem>
				<beam number="1">begin</beam>
				<notations>
					<tied type="stop" number="1"/>
				</notations>
			</note>
			<note>
				<pitch>
					<step>C</step>
					<octave>5</octave>
				</pitch>
				<duration>1680</duration>
				<voice>1</voice>
				<type>16th</type>
				<stem default-y="-55.05">down</stem>
				<beam number="1">continue</beam>
			</note>
			<note>
				<pitch>
					<step>B</step>
					<octave>4</octave>
				</pitch>
				<duration>1680</duration>
				<voice>1</voice>
				<type>16th</type>
				<stem default-y="-55.05">down</stem>
				<beam number="1">end</beam>
			</note>
		</measure>
		<!--==========================[1,26]=============================-->
		<measure number="26" width="165">
			<note>
				<pitch>
					<step>A</step>
					<octave>4</octave>
				</pitch>
				<duration>6720</duration>
				<tie type="start"/>
				<voice>1</voice>
				<type>quarter</type>
				<stem default-y="9.51">up</stem>
				<notations>
					<tied type="start" number="1" placement="below" orientation="under"/>
				</notations>
			</note>
			<harmony font-family="Times New Roman" font-size="12" font-weight="normal" font-style="normal" relative-x="4.52" default-y="19.41">
				<root>
					<root-step>D</root-step>
				</root>
				<kind>minor</kind>
				<offset>-6720.00</offset>
			</harmony>
			<note>
				<pitch>
					<step>A</step>
					<octave>4</octave>
				</pitch>
				<duration>3360</duration>
				<tie type="stop"/>
				<voice>1</voice>
				<type>eighth</type>
				<stem default-y="9.51">up</stem>
				<beam number="1">begin</beam>
				<notations>
					<tied type="stop" number="1"/>
				</notations>
			</note>
			<note>
				<pitch>
					<step>F</step>
					<octave>4</octave>
				</pitch>
				<duration>1680</duration>
				<voice>1</voice>
				<type>16th</type>
				<stem default-y="9.51">up</stem>
				<beam number="1">continue</beam>
			</note>
			<note>
				<pitch>
					<step>A</step>
					<octave>4</octave>
				</pitch>
				<duration>1680</duration>
				<voice>1</voice>
				<type>16th</type>
				<stem default-y="9.51">up</stem>
				<beam number="1">end</beam>
			</note>
			<harmony font-family="Times New Roman" font-size="12" font-weight="normal" font-style="normal" relative-x="-2.24" default-y="19.42">
				<root>
					<root-step>G</root-step>
				</root>
				<kind>dominant</kind>
			</harmony>
			<note>
				<pitch>
					<step>G</step>
					<octave>4</octave>
				</pitch>
				<duration>13440</duration>
				<voice>1</voice>
				<type>half</type>
				<stem default-y="4.76">up</stem>
			</note>
		</measure>
		<!--==========================[1,27]=============================-->
		<measure number="27" width="210">
			<print new-system="yes">
				<system-layout>
					<system-margins>
						<left-margin>30.462</left-margin>
						<right-margin>1.650</right-margin>
					</system-margins>
					<system-distance>70.502</system-distance>
				</system-layout>
			</print>
			<attributes>
				<staff-details number="1" print-object="yes">
				</staff-details>
			</attributes>
			<note>
				<pitch>
					<step>F</step>
					<octave>4</octave>
				</pitch>
				<duration>3360</duration>
				<voice>1</voice>
				<type>eighth</type>
				<stem default-y="9.51">up</stem>
				<beam number="1">begin</beam>
			</note>
			<harmony font-family="Times New Roman" font-size="12" font-weight="normal" font-style="normal" relative-x="3.54" default-y="19.42">
				<root>
					<root-step>F</root-step>
				</root>
				<kind>major</kind>
				<offset>-3360.00</offset>
			</harmony>
			<note>
				<pitch>
					<step>G</step>
					<octave>4</octave>
				</pitch>
				<duration>3360</duration>
				<voice>1</voice>
				<type>eighth</type>
				<stem default-y="12.68">up</stem>
				<beam number="1">continue</beam>
			</note>
			<note>
				<pitch>
					<step>A</step>
					<octave>4</octave>
				</pitch>
				<duration>3360</duration>
				<voice>1</voice>
				<type>eighth</type>
				<stem default-y="16.24">up</stem>
				<beam number="1">continue</beam>
			</note>
			<note>
				<pitch>
					<step>C</step>
					<octave>5</octave>
				</pitch>
				<duration>3360</duration>
				<voice>1</voice>
				<type>eighth</type>
				<stem default-y="19.41">up</stem>
				<beam number="1">end</beam>
			</note>
			<note>
				<pitch>
					<step>D</step>
					<octave>5</octave>
				</pitch>
				<duration>10080</duration>
				<voice>1</voice>
				<type>quarter</type>
				<dot/>
				<stem default-y="-45.14">down</stem>
			</note>
			<harmony font-family="Times New Roman" font-size="12" font-weight="normal" font-style="normal" relative-x="1.60" default-y="19.42">
				<root>
					<root-step>G</root-step>
				</root>
				<kind>dominant</kind>
				<offset>-10080.00</offset>
			</harmony>
			<note>
				<pitch>
					<step>E</step>
					<octave>5</octave>
				</pitch>
				<duration>3360</duration>
				<voice>1</voice>
				<type>eighth</type>
				<stem default-y="-40.39">down</stem>
			</note>
		</measure>
		<!--==========================[1,28]=============================-->
		<measure number="28" width="87">
			<note>
				<pitch>
					<step>G</step>
					<octave>4</octave>
				</pitch>
				<duration>26880</duration>
				<voice>1</voice>
				<type>whole</type>
				<stem>none</stem>
			</note>
			<harmony font-family="Times New Roman" font-size="12" font-weight="normal" font-style="normal" relative-x="7.03" default-y="19.41">
				<root>
					<root-step>C</root-step>
				</root>
				<kind>major</kind>
				<offset>-26880.00</offset>
			</harmony>
		</measure>
		<!--==========================[1,29]=============================-->
		<measure number="29" width="165">
			<note>
				<pitch>
					<step>F</step>
					<octave>4</octave>
				</pitch>
				<duration>3360</duration>
				<voice>1</voice>
				<type>eighth</type>
				<stem default-y="9.51">up</stem>
				<beam number="1">begin</beam>
			</note>
			<harmony font-family="Times New Roman" font-size="12" font-weight="normal" font-style="normal" relative-x="10.26" default-y="19.42">
				<root>
					<root-step>F</root-step>
				</root>
				<kind>major</kind>
				<offset>-3360.00</offset>
			</harmony>
			<note>
				<pitch>
					<step>G</step>
					<octave>4</octave>
				</pitch>
				<duration>3360</duration>
				<voice>1</voice>
				<type>eighth</type>
				<stem default-y="12.28">up</stem>
				<beam number="1">continue</beam>
			</note>
			<note>
				<pitch>
					<step>A</step>
					<octave>4</octave>
				</pitch>
				<duration>3360</duration>
				<voice>1</voice>
				<type>eighth</type>
				<stem default-y="16.24">up</stem>
				<beam number="1">continue</beam>
			</note>
			<note>
				<pitch>
					<step>C</step>
					<octave>5</octave>
				</pitch>
				<duration>3360</duration>
				<voice>1</voice>
				<type>eighth</type>
				<stem default-y="19.41">up</stem>
				<beam number="1">end</beam>
			</note>
			<harmony font-family="Times New Roman" font-size="12" font-weight="normal" font-style="normal" relative-x="-4.04" default-y="19.41">
				<root>
					<root-step>E</root-step>
				</root>
				<kind>minor</kind>
			</harmony>
			<note>
				<pitch>
					<step>B</step>
					<octave>4</octave>
				</pitch>
				<duration>6720</duration>
				<voice>1</voice>
				<type>quarter</type>
				<stem default-y="-55.05">down</stem>
				<notations>
					<slur type="start" number="1" placement="above" orientation="over"/>
				</notations>
			</note>
			<note>
				<rest>
				</rest>
				<duration>13440</duration>
				<voice>1</voice>
				<type>half</type>
			</note>
			<note>
				<rest>
				</rest>
				<duration>13440</duration>
				<voice>1</voice>
				<type>half</type>
			</note>
			<note>
				<pitch>
					<step>B</step>
					<octave>4</octave>
				</pitch>
				<duration>3360</duration>
				<voice>1</voice>
				<type>eighth</type>
				<stem default-y="-55.05">down</stem>
				<beam number="1">begin</beam>
				<notations>
					<slur type="stop" number="1"/>
				</notations>
			</note>
			<note>
				<pitch>
					<step>C</step>
					<octave>5</octave>
				</pitch>
				<duration>3360</duration>
				<voice>1</voice>
				<type>eighth</type>
				<stem default-y="-55.06">down</stem>
				<beam number="1">continue</beam>
				<notations>
					<technical>
						<fingering placement="below" relative-x="-5.89" relative-y="1.75">3</fingering>
					</technical>
				</notations>
			</note>
			<note>
				<pitch>
					<step>B</step>
					<octave>4</octave>
				</pitch>
				<duration>3360</duration>
				<voice>1</voice>
				<type>eighth</type>
				<stem default-y="-55.06">down</stem>
				<beam number="1">end</beam>
			</note>
		</measure>
		<!--==========================[1,30]=============================-->
		<measure number="30" width="133">
			<harmony font-family="Times New Roman" font-size="12" font-weight="normal" font-style="normal" relative-x="-5.07" default-y="19.41">
				<root>
					<root-step>D</root-step>
				</root>
				<kind>minor</kind>
			</harmony>
			<note>
				<pitch>
					<step>A</step>
					<octave>4</octave>
				</pitch>
				<duration>6720</duration>
				<tie type="start"/>
				<voice>1</voice>
				<type>quarter</type>
				<stem default-y="9.50">up</stem>
				<notations>
					<tied type="start" number="1" placement="below" orientation="under"/>
				</notations>
			</note>
			<note>
				<pitch>
					<step>A</step>
					<octave>4</octave>
				</pitch>
				<duration>3360</duration>
				<tie type="stop"/>
				<voice>1</voice>
				<type>eighth</type>
				<stem default-y="9.51">up</stem>
				<beam number="1">begin</beam>
				<notations>
					<tied type="stop" number="1"/>
				</notations>
			</note>
			<note>
				<pitch>
					<step>F</step>
					<octave>4</octave>
				</pitch>
				<duration>1680</duration>
				<voice>1</voice>
				<type>16th</type>
				<stem default-y="9.51">up</stem>
				<beam number="1">continue</beam>
			</note>
			<note>
				<pitch>
					<step>A</step>
					<octave>4</octave>
				</pitch>
				<duration>1680</duration>
				<voice>1</voice>
				<type>16th</type>
				<stem default-y="9.51">up</stem>
				<beam number="1">end</beam>
			</note>
			<harmony font-family="Times New Roman" font-size="12" font-weight="normal" font-style="normal" relative-x="-2.24" default-y="19.42">
				<root>
					<root-step>G</root-step>
				</root>
				<kind>dominant</kind>
			</harmony>
			<note>
				<pitch>
					<step>G</step>
					<octave>4</octave>
				</pitch>
				<duration>13440</duration>
				<voice>1</voice>
				<type>half</type>
				<stem default-y="4.76">up</stem>
			</note>
		</measure>
		<!--==========================[1,31]=============================-->
		<measure number="31" width="179">
			<note>
				<pitch>
					<step>F</step>
					<octave>4</octave>
				</pitch>
				<duration>3360</duration>
				<voice>1</voice>
				<type>eighth</type>
				<stem default-y="9.51">up</stem>
				<beam number="1">begin</beam>
			</note>
			<harmony font-family="Times New Roman" font-size="12" font-weight="normal" font-style="normal" relative-x="5.94" default-y="19.42">
				<root>
					<root-step>F</root-step>
				</root>
				<kind>major</kind>
				<offset>-3360.00</offset>
			</harmony>
			<note>
				<pitch>
					<step>G</step>
					<octave>4</octave>
				</pitch>
				<duration>3360</duration>
				<voice>1</voice>
				<type>eighth</type>
				<stem default-y="12.28">up</stem>
				<beam number="1">continue</beam>
			</note>
			<note>
				<pitch>
					<step>A</step>
					<octave>4</octave>
				</pitch>
				<duration>3360</duration>
				<voice>1</voice>
				<type>eighth</type>
				<stem default-y="15.06">up</stem>
				<beam number="1">continue</beam>
			</note>
			<note>
				<pitch>
					<step>C</step>
					<octave>5</octave>
				</pitch>
				<duration>3360</duration>
				<voice>1</voice>
				<type>eighth</type>
				<stem default-y="19.41">up</stem>
				<beam number="1">end</beam>
			</note>
			<note>
				<pitch>
					<step>D</step>
					<octave>5</octave>
				</pitch>
				<duration>6720</duration>
				<voice>1</voice>
				<type>quarter</type>
				<stem default-y="-45.15">down</stem>
				<notations>
					<slur type="start" number="1" placement="above" orientation="over"/>
				</notations>
			</note>
			<harmony font-family="Times New Roman" font-size="12" font-weight="normal" font-style="normal" relative-x="4.00" default-y="19.41">
				<root>
					<root-step>G</root-step>
				</root>
				<kind>dominant</kind>
				<offset>-6720.00</offset>
			</harmony>
			<note>
				<rest>
				</rest>
				<duration>26880</duration>
				<voice>1</voice>
				<type>whole</type>
			</note>
			<note>
				<rest>
				</rest>
				<duration>26880</duration>
				<voice>1</voice>
				<type>whole</type>
			</note>
			<note>
				<pitch>
					<step>D</step>
					<octave>5</octave>
				</pitch>
				<duration>3360</duration>
				<voice>1</voice>
				<type>eighth</type>
				<stem default-y="-45.15">down</stem>
				<beam number="1">begin</beam>
				<notations>
					<slur type="stop" number="1"/>
				</notations>
			</note>
			<note>
				<pitch>
					<step>E</step>
					<octave>5</octave>
				</pitch>
				<duration>3360</duration>
				<voice>1</voice>
				<type>eighth</type>
				<stem default-y="-45.15">down</stem>
				<beam number="1">continue</beam>
				<notations>
					<technical>
						<fingering placement="below" relative-x="-2.72" relative-y="1.75">3</fingering>
					</technical>
				</notations>
			</note>
			<note>
				<pitch>
					<step>D</step>
					<octave>5</octave>
				</pitch>
				<duration>3360</duration>
				<voice>1</voice>
				<type>eighth</type>
				<stem default-y="-45.15">down</stem>
				<beam number="1">end</beam>
			</note>
		</measure>
		<!--==========================[1,32]=============================-->
		<measure number="32" width="79">
			<harmony font-family="Times New Roman" font-size="12" font-weight="normal" font-style="normal" relative-x="-3.05" default-y="19.40">
				<root>
					<root-step>C</root-step>
				</root>
				<kind>major</kind>
			</harmony>
			<note>
				<pitch>
					<step>C</step>
					<octave>5</octave>
				</pitch>
				<duration>26880</duration>
				<voice>1</voice>
				<type>whole</type>
				<stem>none</stem>
			</note>
		</measure>
		<!--==========================[1,33]=============================-->
		<measure number="33" width="109">
			<print new-system="yes">
				<system-layout>
					<system-margins>
						<left-margin>30.463</left-margin>
						<right-margin>1.650</right-margin>
					</system-margins>
					<system-distance>70.514</system-distance>
				</system-layout>
			</print>
			<attributes>
				<staff-details number="1" print-object="yes">
				</staff-details>
			</attributes>
			<note>
				<pitch>
					<step>C</step>
					<octave>5</octave>
				</pitch>
				<duration>20160</duration>
				<voice>1</voice>
				<type>half</type>
				<dot/>
				<stem default-y="-50.30">down</stem>
			</note>
			<note>
				<pitch>
					<step>D</step>
					<octave>5</octave>
				</pitch>
				<duration>6720</duration>
				<voice>1</voice>
				<type>quarter</type>
				<stem default-y="-45.15">down</stem>
			</note>
			<harmony font-family="Times New Roman" font-size="12" font-weight="normal" font-style="normal" relative-x="20.63" default-y="19.41">
				<root>
					<root-step>A</root-step>
				</root>
				<kind>minor</kind>
				<offset>-6720.00</offset>
			</harmony>
		</measure>
		<!--==========================[1,34]=============================-->
		<measure number="34" width="114">
			<note>
				<pitch>
					<step>C</step>
					<octave>5</octave>
				</pitch>
				<duration>13440</duration>
				<tie type="start"/>
				<voice>1</voice>
				<type>half</type>
				<stem default-y="-50.30">down</stem>
				<notations>
					<tied type="start" number="1" placement="above" orientation="over"/>
				</notations>
			</note>
			<note>
				<pitch>
					<step>C</step>
					<octave>5</octave>
				</pitch>
				<duration>6720</duration>
				<tie type="stop"/>
				<voice>1</voice>
				<type>quarter</type>
				<stem default-y="-50.29">down</stem>
				<notations>
					<tied type="stop" number="1"/>
				</notations>
			</note>
			<note>
				<pitch>
					<step>D</step>
					<octave>5</octave>
				</pitch>
				<duration>3360</duration>
				<voice>1</voice>
				<type>eighth</type>
				<stem default-y="-45.14">down</stem>
				<beam number="1">begin</beam>
			</note>
			<note>
				<pitch>
					<step>E</step>
					<octave>5</octave>
				</pitch>
				<duration>3360</duration>
				<voice>1</voice>
				<type>eighth</type>
				<stem default-y="-40.39">down</stem>
				<beam number="1">end</beam>
				<notations>
					<slur type="start" number="1" placement="above" orientation="over"/>
				</notations>
			</note>
		</measure>
		<!--==========================[1,35]=============================-->
		<measure number="35" width="169">
			<note>
				<pitch>
					<step>E</step>
					<octave>5</octave>
				</pitch>
				<duration>3360</duration>
				<voice>1</voice>
				<type>eighth</type>
				<stem default-y="-40.39">down</stem>
				<notations>
					<slur type="stop" number="1"/>
				</notations>
			</note>
			<harmony font-family="Times New Roman" font-size="12" font-weight="normal" font-style="normal" relative-x="-9.90" default-y="19.41">
				<root>
					<root-step>F</root-step>
				</root>
				<kind>major</kind>
			</harmony>
			<note>
				<pitch>
					<step>C</step>
					<octave>5</octave>
				</pitch>
				<duration>10080</duration>
				<tie type="start"/>
				<voice>1</voice>
				<type>quarter</type>
				<dot/>
				<stem default-y="-50.29">down</stem>
				<notations>
					<tied type="start" number="1" placement="above" orientation="over"/>
				</notations>
			</note>
			<note>
				<pitch>
					<step>C</step>
					<octave>5</octave>
				</pitch>
				<duration>6720</duration>
				<tie type="stop"/>
				<voice>1</voice>
				<type>quarter</type>
				<stem default-y="-50.29">down</stem>
				<notations>
					<tied type="stop" number="1"/>
				</notations>
			</note>
			<note>
				<pitch>
					<step>C</step>
					<octave>5</octave>
				</pitch>
				<duration>6720</duration>
				<voice>1</voice>
				<type>quarter</type>
				<stem default-y="-50.29">down</stem>
			</note>
		</measure>
		<!--==========================[1,36]=============================-->
		<measure number="36" width="114">
			<harmony font-family="Times New Roman" font-size="12" font-weight="normal" font-style="normal" relative-x="-0.32" default-y="19.41">
				<root>
					<root-step>G</root-step>
				</root>
				<kind>dominant</kind>
			</harmony>
			<note>
				<pitch>
					<step>G</step>
					<octave>4</octave>
				</pitch>
				<duration>6720</duration>
				<voice>1</voice>
				<type>quarter</type>
				<stem default-y="4.76">up</stem>
			</note>
			<note>
				<pitch>
					<step>B</step>
					<octave>4</octave>
				</pitch>
				<duration>6720</duration>
				<voice>1</voice>
				<type>quarter</type>
				<stem default-y="-55.05">down</stem>
			</note>
			<note>
				<pitch>
					<step>D</step>
					<octave>5</octave>
				</pitch>
				<duration>6720</duration>
				<voice>1</voice>
				<type>quarter</type>
				<stem default-y="-45.15">down</stem>
			</note>
			<note>
				<pitch>
					<step>E</step>
					<octave>5</octave>
				</pitch>
				<duration>6720</duration>
				<voice>1</voice>
				<type>quarter</type>
				<stem default-y="-40.39">down</stem>
			</note>
		</measure>
		<!--==========================[1,37]=============================-->
		<measure number="37" width="102">
			<harmony font-family="Times New Roman" font-size="12" font-weight="normal" font-style="normal" relative-x="-1.23" default-y="19.41">
				<root>
					<root-step>C</root-step>
				</root>
				<kind>major</kind>
			</harmony>
			<note>
				<pitch>
					<step>C</step>
					<octave>5</octave>
				</pitch>
				<duration>20160</duration>
				<voice>1</voice>
				<type>half</type>
				<dot/>
				<stem default-y="-50.30">down</stem>
			</note>
			<note>
				<pitch>
					<step>D</step>
					<octave>5</octave>
				</pitch>
				<duration>6720</duration>
				<voice>1</voice>
				<type>quarter</type>
				<stem default-y="-45.15">down</stem>
			</note>
		</measure>
		<!--==========================[1,38]=============================-->
		<measure number="38" width="160">
			<harmony font-family="Times New Roman" font-size="12" font-weight="normal" font-style="normal" relative-x="-2.89" default-y="19.41">
				<root>
					<root-step>A</root-step>
				</root>
				<kind>minor</kind>
			</harmony>
			<note>
				<pitch>
					<step>C</step>
					<octave>5</octave>
				</pitch>
				<duration>13440</duration>
				<tie type="start"/>
				<voice>1</voice>
				<type>half</type>
				<stem default-y="-50.30">down</stem>
				<notations>
					<tied type="start" number="1" placement="above" orientation="over"/>
				</notations>
			</note>
			<note>
				<pitch>
					<step>C</step>
					<octave>5</octave>
				</pitch>
				<duration>6720</duration>
				<tie type="stop"/>
				<voice>1</voice>
				<type>quarter</type>
				<stem default-y="-50.29">down</stem>
				<notations>
					<tied type="stop" number="1"/>
					<slur type="start" number="1" placement="above" orientation="over"/>
				</notations>
			</note>
			<note>
				<rest>
				</rest>
				<duration>26880</duration>
				<voice>1</voice>
				<type>whole</type>
			</note>
			<note>
				<rest>
				</rest>
				<duration>26880</duration>
				<voice>1</voice>
				<type>whole</type>
			</note>
			<note>
				<pitch>
					<step>C</step>
					<octave>5</octave>
				</pitch>
				<duration>3360</duration>
				<voice>1</voice>
				<type>eighth</type>
				<stem default-y="19.42">up</stem>
				<beam number="1">begin</beam>
				<notations>
					<slur type="stop" number="1"/>
				</notations>
			</note>
			<note>
				<pitch>
					<step>E</step>
					<octave>4</octave>
				</pitch>
				<duration>3360</duration>
				<voice>1</voice>
				<type>eighth</type>
				<stem default-y="14.27">up</stem>
				<beam number="1">continue</beam>
				<notations>
					<technical>
						<fingering placement="above" relative-x="4.41" relative-y="11.15">3</fingering>
					</technical>
				</notations>
			</note>
			<note>
				<pitch>
					<step>F</step>
					<octave>4</octave>
				</pitch>
				<duration>3360</duration>
				<voice>1</voice>
				<type>eighth</type>
				<stem default-y="9.52">up</stem>
				<beam number="1">end</beam>
			</note>
		</measure>
		<!--==========================[1,39]=============================-->
		<measure number="39" width="85">
			<note>
				<pitch>
					<step>G</step>
					<octave>4</octave>
				</pitch>
				<duration>26880</duration>
				<voice>1</voice>
				<type>whole</type>
				<stem>none</stem>
				<notations>
					<slur type="start" number="1" placement="above" orientation="under"/>
				</notations>
			</note>
			<harmony font-family="Times New Roman" font-size="12" font-weight="normal" font-style="normal" relative-x="1.71" default-y="19.41">
				<root>
					<root-step>G</root-step>
				</root>
				<kind>dominant</kind>
				<offset>-26880.00</offset>
			</harmony>
		</measure>
		<!--==========================[1,40]=============================-->
		<measure number="40" width="119">
			<print new-system="yes">
				<system-layout>
					<system-margins>
						<left-margin>30.464</left-margin>
						<right-margin>1.650</right-margin>
					</system-margins>
					<system-distance>70.503</system-distance>
				</system-layout>
			</print>
			<attributes>
				<staff-details number="1" print-object="yes">
				</staff-details>
			</attributes>
			<note>
				<pitch>
					<step>G</step>
					<octave>4</octave>
				</pitch>
				<duration>20160</duration>
				<voice>1</voice>
				<type>half</type>
				<dot/>
				<stem default-y="4.76">up</stem>
				<notations>
					<slur type="stop" number="1"/>
				</notations>
			</note>
			<note>
				<rest>
				</rest>
				<duration>6720</duration>
				<voice>1</voice>
				<type>quarter</type>
			</note>
		</measure>
		<!--==========================[1,41]=============================-->
		<measure number="41" width="110">
			<note>
				<pitch>
					<step>C</step>
					<octave>5</octave>
				</pitch>
				<duration>20160</duration>
				<voice>1</voice>
				<type>half</type>
				<dot/>
				<stem default-y="-50.29">down</stem>
			</note>
			<harmony font-family="Times New Roman" font-size="12" font-weight="normal" font-style="normal" relative-x="0.69" default-y="19.41">
				<root>
					<root-step>C</root-step>
				</root>
				<kind>major</kind>
				<offset>-20160.00</offset>
			</harmony>
			<note>
				<pitch>
					<step>D</step>
					<octave>5</octave>
				</pitch>
				<duration>6720</duration>
				<voice>1</voice>
				<type>quarter</type>
				<stem default-y="-45.15">down</stem>
			</note>
		</measure>
		<!--==========================[1,42]=============================-->
		<measure number="42" width="123">
			<harmony font-family="Times New Roman" font-size="12" font-weight="normal" font-style="normal" relative-x="-11.04" default-y="19.41">
				<root>
					<root-step>A</root-step>
				</root>
				<kind>minor</kind>
			</harmony>
			<note>
				<pitch>
					<step>C</step>
					<octave>5</octave>
				</pitch>
				<duration>20160</duration>
				<voice>1</voice>
				<type>half</type>
				<dot/>
				<stem default-y="-50.30">down</stem>
			</note>
			<note>
				<pitch>
					<step>D</step>
					<octave>5</octave>
				</pitch>
				<duration>6720</duration>
				<voice>1</voice>
				<type>quarter</type>
				<stem default-y="-45.15">down</stem>
			</note>
		</measure>
		<!--==========================[1,43]=============================-->
		<measure number="43" width="123">
			<harmony font-family="Times New Roman" font-size="12" font-weight="normal" font-style="normal" relative-x="-0.30" default-y="19.41">
				<root>
					<root-step>F</root-step>
				</root>
				<kind>major</kind>
			</harmony>
			<note>
				<pitch>
					<step>E</step>
					<octave>5</octave>
				</pitch>
				<duration>3360</duration>
				<voice>1</voice>
				<type>eighth</type>
				<stem default-y="-40.39">down</stem>
				<beam number="1">begin</beam>
			</note>
			<note>
				<pitch>
					<step>C</step>
					<octave>5</octave>
				</pitch>
				<duration>3360</duration>
				<tie type="start"/>
				<voice>1</voice>
				<type>eighth</type>
				<stem default-y="-49.90">down</stem>
				<beam number="1">end</beam>
				<notations>
					<tied type="start" number="1" placement="above" orientation="over"/>
				</notations>
			</note>
			<note>
				<pitch>
					<step>C</step>
					<octave>5</octave>
				</pitch>
				<duration>13440</duration>
				<tie type="stop"/>
				<voice>1</voice>
				<type>half</type>
				<stem default-y="-50.29">down</stem>
				<notations>
					<tied type="stop" number="1"/>
				</notations>
			</note>
			<note>
				<pitch>
					<step>C</step>
					<octave>5</octave>
				</pitch>
				<duration>6720</duration>
				<voice>1</voice>
				<type>quarter</type>
				<stem default-y="-50.29">down</stem>
			</note>
		</measure>
		<!--==========================[1,44]=============================-->
		<measure number="44" width="123">
			<harmony font-family="Times New Roman" font-size="12" font-weight="normal" font-style="normal" relative-x="-0.80" default-y="19.41">
				<root>
					<root-step>G</root-step>
				</root>
				<kind>dominant</kind>
			</harmony>
			<note>
				<pitch>
					<step>G</step>
					<octave>4</octave>
				</pitch>
				<duration>6720</duration>
				<voice>1</voice>
				<type>quarter</type>
				<stem default-y="4.76">up</stem>
			</note>
			<note>
				<pitch>
					<step>B</step>
					<octave>4</octave>
				</pitch>
				<duration>6720</duration>
				<voice>1</voice>
				<type>quarter</type>
				<stem default-y="-55.05">down</stem>
			</note>
			<note>
				<pitch>
					<step>D</step>
					<octave>5</octave>
				</pitch>
				<duration>6720</duration>
				<voice>1</voice>
				<type>quarter</type>
				<stem default-y="-45.15">down</stem>
			</note>
			<note>
				<pitch>
					<step>E</step>
					<octave>5</octave>
				</pitch>
				<duration>6720</duration>
				<voice>1</voice>
				<type>quarter</type>
				<stem default-y="-40.39">down</stem>
			</note>
		</measure>
		<!--==========================[1,45]=============================-->
		<measure number="45" width="123">
			<harmony font-family="Times New Roman" font-size="12" font-weight="normal" font-style="normal" relative-x="-1.23" default-y="19.41">
				<root>
					<root-step>C</root-step>
				</root>
				<kind>major</kind>
			</harmony>
			<note>
				<pitch>
					<step>C</step>
					<octave>5</octave>
				</pitch>
				<duration>20160</duration>
				<voice>1</voice>
				<type>half</type>
				<dot/>
				<stem default-y="-50.30">down</stem>
			</note>
			<note>
				<pitch>
					<step>D</step>
					<octave>5</octave>
				</pitch>
				<duration>6720</duration>
				<voice>1</voice>
				<type>quarter</type>
				<stem default-y="-45.15">down</stem>
			</note>
		</measure>
		<!--==========================[1,46]=============================-->
		<measure number="46" width="130">
			<harmony font-family="Times New Roman" font-size="12" font-weight="normal" font-style="normal" relative-x="-6.72" default-y="19.41">
				<root>
					<root-step>A</root-step>
				</root>
				<kind>minor</kind>
			</harmony>
			<note>
				<pitch>
					<step>C</step>
					<octave>5</octave>
				</pitch>
				<duration>20160</duration>
				<voice>1</voice>
				<type>half</type>
				<dot/>
				<stem default-y="-50.30">down</stem>
			</note>
			<note>
				<pitch>
					<step>C</step>
					<octave>4</octave>
				</pitch>
				<duration>6720</duration>
				<voice>1</voice>
				<type>quarter</type>
				<stem default-y="-15.05">up</stem>
			</note>
		</measure>
		<!--==========================[1,47]=============================-->
		<measure number="47" width="184">
			<print new-system="yes">
				<system-layout>
					<system-margins>
						<left-margin>30.464</left-margin>
						<right-margin>1.650</right-margin>
					</system-margins>
					<system-distance>70.510</system-distance>
				</system-layout>
			</print>
			<attributes>
				<staff-details number="1" print-object="yes">
				</staff-details>
			</attributes>
			<harmony font-family="Times New Roman" font-size="12" font-weight="normal" font-style="normal" relative-x="-8.85" default-y="19.42">
				<root>
					<root-step>G</root-step>
				</root>
				<kind>dominant</kind>
			</harmony>
			<note>
				<pitch>
					<step>G</step>
					<octave>4</octave>
				</pitch>
				<duration>26880</duration>
				<voice>1</voice>
				<type>whole</type>
				<stem>none</stem>
				<notations>
					<slur type="start" number="1" placement="below" orientation="under"/>
				</notations>
			</note>
		</measure>
		<!--==========================[1,48]=============================-->
		<measure number="48" width="133">
			<note>
				<pitch>
					<step>G</step>
					<octave>4</octave>
				</pitch>
				<duration>20160</duration>
				<voice>1</voice>
				<type>half</type>
				<dot/>
				<stem default-y="4.76">up</stem>
				<notations>
					<slur type="stop" number="1"/>
				</notations>
			</note>
			<note>
				<pitch>
					<step>F</step>
					<octave>5</octave>
				</pitch>
				<duration>6720</duration>
				<voice>1</voice>
				<type>quarter</type>
				<stem default-y="-35.24">down</stem>
			</note>
		</measure>
		<!--==========================[1,49]=============================-->
		<measure number="49" width="133">
			<note>
				<pitch>
					<step>E</step>
					<octave>5</octave>
				</pitch>
				<duration>6720</duration>
				<voice>1</voice>
				<type>quarter</type>
				<stem default-y="-40.39">down</stem>
			</note>
			<harmony font-family="Times New Roman" font-size="12" font-weight="normal" font-style="normal" relative-x="0.69" default-y="19.42">
				<root>
					<root-step>C</root-step>
				</root>
				<kind>major</kind>
				<offset>-6720.00</offset>
			</harmony>
			<note>
				<pitch>
					<step>C</step>
					<octave>5</octave>
				</pitch>
				<duration>3360</duration>
				<voice>1</voice>
				<type>eighth</type>
				<stem default-y="19.42">up</stem>
				<beam number="1">begin</beam>
			</note>
			<direction placement="above">
				<direction-type>
					<octave-shift type="down" size="15" default-y="11.95"/>
				</direction-type>
				<offset>-3360.00</offset>
			</direction>
			<direction placement="above">
				<direction-type>
					<octave-shift type="stop" size="15" default-y="11.95"/>
				</direction-type>
			</direction>
			<note>
				<pitch>
					<step>G</step>
					<octave>4</octave>
				</pitch>
				<duration>3360</duration>
				<tie type="start"/>
				<voice>1</voice>
				<type>eighth</type>
				<stem default-y="9.91">up</stem>
				<beam number="1">end</beam>
				<notations>
					<tied type="start" number="1" placement="below" orientation="under"/>
				</notations>
			</note>
			<note>
				<pitch>
					<step>G</step>
					<octave>4</octave>
				</pitch>
				<duration>13440</duration>
				<tie type="stop"/>
				<voice>1</voice>
				<type>half</type>
				<stem default-y="4.76">up</stem>
				<notations>
					<tied type="stop" number="1"/>
					<slur type="start" number="1" placement="below" orientation="under"/>
				</notations>
			</note>
		</measure>
		<!--==========================[1,50]=============================-->
		<measure number="50" width="133">
			<note>
				<pitch>
					<step>G</step>
					<octave>4</octave>
				</pitch>
				<duration>13440</duration>
				<tie type="start"/>
				<voice>1</voice>
				<type>half</type>
				<stem default-y="4.76">up</stem>
				<notations>
					<tied type="start" number="1" placement="below" orientation="under"/>
					<slur type="stop" number="1"/>
				</notations>
			</note>
			<note>
				<pitch>
					<step>G</step>
					<octave>4</octave>
				</pitch>
				<duration>3360</duration>
				<tie type="stop"/>
				<voice>1</voice>
				<type>eighth</type>
				<stem default-y="4.76">up</stem>
				<notations>
					<tied type="stop" number="1"/>
				</notations>
			</note>
			<harmony font-family="Times New Roman" font-size="12" font-weight="normal" font-style="normal" relative-x="8.92" default-y="19.42">
				<root>
					<root-step>E</root-step>
				</root>
				<kind>minor-seventh</kind>
				<offset>-3360.00</offset>
			</harmony>
			<note>
				<pitch>
					<step>D</step>
					<octave>5</octave>
				</pitch>
				<duration>10080</duration>
				<voice>1</voice>
				<type>quarter</type>
				<dot/>
				<stem default-y="-45.14">down</stem>
			</note>
		</measure>
		<!--==========================[1,51]=============================-->
		<measure number="51" width="133">
			<harmony font-family="Times New Roman" font-size="12" font-weight="normal" font-style="normal" relative-x="-7.21" default-y="19.42">
				<root>
					<root-step>A</root-step>
				</root>
				<kind>minor</kind>
			</harmony>
			<note>
				<pitch>
					<step>C</step>
					<octave>5</octave>
				</pitch>
				<duration>10080</duration>
				<voice>1</voice>
				<type>quarter</type>
				<dot/>
				<stem default-y="-50.29">down</stem>
			</note>
			<note>
				<pitch>
					<step>G</step>
					<octave>4</octave>
				</pitch>
				<duration>3360</duration>
				<voice>1</voice>
				<type>eighth</type>
				<stem default-y="4.76">up</stem>
			</note>
			<note>
				<pitch>
					<step>E</step>
					<octave>4</octave>
				</pitch>
				<duration>13440</duration>
				<voice>1</voice>
				<type>half</type>
				<stem default-y="-5.14">up</stem>
				<notations>
					<slur type="start" number="1" placement="below" orientation="under"/>
				</notations>
			</note>
		</measure>
		<!--==========================[1,52]=============================-->
		<measure number="52" width="137">
			<note>
				<pitch>
					<step>E</step>
					<octave>4</octave>
				</pitch>
				<duration>20160</duration>
				<voice>1</voice>
				<type>half</type>
				<dot/>
				<stem default-y="-5.14">up</stem>
				<notations>
					<slur type="stop" number="1"/>
				</notations>
			</note>
			<note>
				<pitch>
					<step>B</step>
					<octave>4</octave>
				</pitch>
				<duration>6720</duration>
				<voice>1</voice>
				<type>quarter</type>
				<stem default-y="-55.04">down</stem>
			</note>
		</measure>
		<!--==========================[1,53]=============================-->
		<measure number="53" width="250">
			<print new-system="yes">
				<system-layout>
					<system-margins>
						<left-margin>30.464</left-margin>
						<right-margin>11.553</right-margin>
					</system-margins>
					<system-distance>70.501</system-distance>
				</system-layout>
			</print>
			<attributes>
				<staff-details number="1" print-object="yes">
				</staff-details>
			</attributes>
			<note>
				<pitch>
					<step>A</step>
					<octave>4</octave>
				</pitch>
				<duration>6720</duration>
				<voice>1</voice>
				<type>quarter</type>
				<stem default-y="9.51">up</stem>
				<notations>
					<slur type="start" number="1" placement="below" orientation="under"/>
				</notations>
			</note>
			<harmony font-family="Times New Roman" font-size="12" font-weight="normal" font-style="normal" relative-x="9.78" default-y="19.41">
				<root>
					<root-step>F</root-step>
				</root>
				<kind>major</kind>
				<offset>-6720.00</offset>
			</harmony>
			<note>
				<rest>
				</rest>
				<duration>26880</duration>
				<voice>1</voice>
				<type>whole</type>
			</note>
			<note>
				<rest>
				</rest>
				<duration>26880</duration>
				<voice>1</voice>
				<type>whole</type>
			</note>
			<note>
				<pitch>
					<step>A</step>
					<octave>4</octave>
				</pitch>
				<duration>3360</duration>
				<voice>1</voice>
				<type>eighth</type>
				<stem default-y="9.51">up</stem>
				<beam number="1">begin</beam>
				<notations>
					<slur type="stop" number="1"/>
				</notations>
			</note>
			<note>
				<pitch>
					<step>F</step>
					<octave>4</octave>
				</pitch>
				<duration>480</duration>
				<voice>1</voice>
				<type>16th</type>
				<time-modification>
					<actual-notes>7</actual-notes>
					<normal-notes>2</normal-notes>
				</time-modification>
				<stem default-y="3.57">up</stem>
				<beam number="1">continue</beam>
				<notations>
					<tuplet type="start" bracket="no" />
				</notations>
			</note>
			<harmony font-family="Times New Roman" font-size="12" font-weight="normal" font-style="normal" relative-x="-10.40" default-y="19.41">
				<root>
					<root-step>G</root-step>
				</root>
				<kind>major</kind>
			</harmony>
			<note>
				<pitch>
					<step>D</step>
					<octave>4</octave>
				</pitch>
				<duration>480</duration>
				<tie type="start"/>
				<voice>1</voice>
				<type>16th</type>
				<time-modification>
					<actual-notes>7</actual-notes>
					<normal-notes>2</normal-notes>
				</time-modification>
				<stem default-y="-0.39">up</stem>
				<beam number="1">end</beam>
				<notations>
					<tied type="start" number="1" placement="below" orientation="under"/>
					<tuplet type="stop"/>
				</notations>
			</note>
			<note>
				<pitch>
					<step>D</step>
					<octave>4</octave>
				</pitch>
				<duration>13440</duration>
				<tie type="stop"/>
				<voice>1</voice>
				<type>half</type>
				<stem default-y="-10.29">up</stem>
				<notations>
					<tied type="stop" number="1"/>
					<slur type="start" number="1" placement="below" orientation="under"/>
				</notations>
			</note>
		</measure>
		<!--==========================[1,54]=============================-->
		<measure number="54" width="70">
			<note>
				<pitch>
					<step>D</step>
					<octave>4</octave>
				</pitch>
				<duration>26880</duration>
				<voice>1</voice>
				<type>whole</type>
				<stem>none</stem>
				<notations>
					<slur type="stop" number="1"/>
				</notations>
			</note>
		</measure>
		<!--==========================[1,55]=============================-->
		<measure number="55" width="77">
			<note>
				<pitch>
					<step>C</step>
					<octave>5</octave>
				</pitch>
				<duration>26880</duration>
				<voice>1</voice>
				<type>whole</type>
				<stem>none</stem>
				<notations>
					<slur type="start" number="1" placement="above" orientation="over"/>
				</notations>
			</note>
			<harmony font-family="Times New Roman" font-size="12" font-weight="normal" font-style="normal" relative-x="0.79" default-y="19.41">
				<root>
					<root-step>C</root-step>
				</root>
				<kind>major</kind>
				<offset>-26880.00</offset>
			</harmony>
		</measure>
		<!--==========================[1,56]=============================-->
		<measure number="56" width="67">
			<note>
				<pitch>
					<step>C</step>
					<octave>5</octave>
				</pitch>
				<duration>26880</duration>
				<voice>1</voice>
				<type>whole</type>
				<stem>none</stem>
				<notations>
					<slur type="stop" number="1"/>
					<slur type="start" number="1" placement="above" orientation="over"/>
				</notations>
			</note>
		</measure>
		<!--==========================[1,57]=============================-->
		<measure number="57" width="82">
			<note>
				<pitch>
					<step>C</step>
					<octave>5</octave>
				</pitch>
				<duration>26880</duration>
				<voice>1</voice>
				<type>whole</type>
				<stem>none</stem>
				<notations>
					<slur type="stop" number="1"/>
					<slur type="start" number="1" placement="above" orientation="over"/>
				</notations>
			</note>
		</measure>
		<!--==========================[1,58]=============================-->
		<measure number="58" width="216">
			<note>
				<pitch>
					<step>C</step>
					<octave>5</octave>
				</pitch>
				<duration>13440</duration>
				<voice>1</voice>
				<type>half</type>
				<stem default-y="-50.29">down</stem>
				<notations>
					<slur type="stop" number="1"/>
				</notations>
			</note>
			<note>
				<pitch>
					<step>C</step>
					<octave>4</octave>
				</pitch>
				<duration>6720</duration>
				<tie type="start"/>
				<voice>1</voice>
				<type>quarter</type>
				<stem default-y="-15.05">up</stem>
				<notations>
					<tied type="start" number="1" placement="below" orientation="under"/>
				</notations>
			</note>
			<note>
				<pitch>
					<step>C</step>
					<octave>4</octave>
				</pitch>
				<duration>2240</duration>
				<tie type="stop"/>
				<voice>1</voice>
				<type>eighth</type>
				<time-modification>
					<actual-notes>3</actual-notes>
					<normal-notes>2</normal-notes>
				</time-modification>
				<stem default-y="-5.14">up</stem>
				<beam number="1">begin</beam>
				<notations>
					<tied type="stop" number="1"/>
					<tuplet type="start" bracket="no" />
				</notations>
			</note>
			<note>
				<pitch>
					<step>E</step>
					<octave>4</octave>
				</pitch>
				<duration>2240</duration>
				<voice>1</voice>
				<type>eighth</type>
				<time-modification>
					<actual-notes>3</actual-notes>
					<normal-notes>2</normal-notes>
				</time-modification>
				<stem default-y="-1.18">up</stem>
				<beam number="1">continue</beam>
			</note>
			<note>
				<pitch>
					<step>G</step>
					<octave>4</octave>
				</pitch>
				<duration>2240</duration>
				<voice>1</voice>
				<type>eighth</type>
				<time-modification>
					<actual-notes>3</actual-notes>
					<normal-notes>2</normal-notes>
				</time-modification>
				<stem default-y="4.76">up</stem>
				<beam number="1">end</beam>
				<notations>
					<tuplet type="stop"/>
				</notations>
			</note>
		</measure>
		<!--==========================[1,59]=============================-->
		<measure number="59" width="80">
			<note>
				<pitch>
					<step>C</step>
					<octave>5</octave>
				</pitch>
				<duration>26880</duration>
				<voice>1</voice>
				<type>whole</type>
				<stem>none</stem>
			</note>
			<note>
				<chord/>
				<pitch>
					<step>G</step>
					<octave>4</octave>
				</pitch>
				<duration>26880</duration>
				<voice>1</voice>
				<type>whole</type>
				<stem>none</stem>
			</note>
			<note>
				<chord/>
				<pitch>
					<step>E</step>
					<octave>4</octave>
				</pitch>
				<duration>26880</duration>
				<voice>1</voice>
				<type>whole</type>
				<stem>none</stem>
			</note>
			<note>
				<chord/>
				<pitch>
					<step>C</step>
					<octave>4</octave>
				</pitch>
				<duration>26880</duration>
				<voice>1</voice>
				<type>whole</type>
				<stem>none</stem>
			</note>
			<barline location="right">
				<bar-style>light-heavy</bar-style>
			</barline>
		</measure>
	</part>
</score-partwise>
