<?xml version="1.0" encoding="UTF-8"?>
<!DOCTYPE score-partwise PUBLIC "-//Recordare//DTD MusicXML 3.0 Partwise//EN" "http://www.musicxml.org/dtds/partwise.dtd">
<score-partwise version="3.0">
  <movement-title>Quem queritis</movement-title>
  <identification>
      <encoding>
          <software>Encore</software>
      </encoding>
  </identification>
  <defaults>
      <scaling>
          <millimeters>6.35</millimeters>
          <tenths>40</tenths>
      </scaling>
  </defaults>
  <part-list>
      <part-group type="start" number="1">
          <group-symbol>brace</group-symbol>
          <group-barline>yes</group-barline>
      </part-group>
      <score-part id="P1">
          <part-name></part-name>
          <score-instrument id="P1-I2">
              <instrument-name>NONE</instrument-name>
          </score-instrument>
          <midi-instrument id="P1-I2">
              <midi-channel>1</midi-channel>
          </midi-instrument>
      </score-part>
      <part-group type="stop" number="1"/>
  </part-list>
  <!--=========================================================-->
  <part id="P1">
      <measure  number="1">
          <attributes>
              <divisions>240</divisions>
              <key>
                  <fifths>0</fifths>
              </key>
              <time>
                  <beats>4</beats>
                  <beat-type>4</beat-type>
              </time>
              <staves>2</staves>
              <clef number="1">
                  <sign>G</sign>
                  <line>2</line>
              </clef>
              <clef number="2">
                  <sign>F</sign>
                  <line>4</line>
              </clef>
              <transpose>
                  <chromatic>0</chromatic>
              </transpose>
          </attributes>
          <note>
              <pitch>
                  <step>E</step>
                  <octave>5</octave>
              </pitch>
              <duration>120</duration>
              <voice>1</voice>
              <type>eighth</type>
              <stem>down</stem>
              <staff>1</staff>
              <beam number="1">begin</beam>
              <notations>
              </notations>
          </note>
          <note>
              <chord/>
              <pitch>
                  <step>B</step>
                  <octave>4</octave>
              </pitch>
              <duration>120</duration>
              <voice>1</voice>
              <type>eighth</type>
              <stem>down</stem>
              <staff>1</staff>
              <notations>
              </notations>
          </note>
          <note>
              <pitch>
                  <step>E</step>
                  <octave>5</octave>
              </pitch>
              <duration>120</duration>
              <voice>1</voice>
              <type>eighth</type>
              <stem>down</stem>
              <staff>1</staff>
              <beam number="1">end</beam>
              <notations>
              </notations>
          </note>
          <note>
              <chord/>
              <pitch>
                  <step>B</step>
                  <octave>4</octave>
              </pitch>
              <duration>120</duration>
              <voice>1</voice>
              <type>eighth</type>
              <stem>down</stem>
              <staff>1</staff>
              <notations>
              </notations>
          </note>
          <note>
              <rest/>
              <duration>120</duration>
              <voice>1</voice>
              <type>eighth</type>
              <staff>1</staff>
          </note>
          <note>
              <pitch>
                  <step>E</step>
                  <octave>5</octave>
              </pitch>
              <duration>240</duration>
              <voice>1</voice>
              <type>quarter</type>
              <stem>down</stem>
              <staff>1</staff>
              <notations>
              </notations>
          </note>
          <note>
              <chord/>
              <pitch>
                  <step>B</step>
                  <octave>4</octave>
              </pitch>
              <duration>240</duration>
              <voice>1</voice>
              <type>quarter</type>
              <stem>down</stem>
              <staff>1</staff>
              <notations>
              </notations>
          </note>
          <note>
              <pitch>
                  <step>E</step>
                  <octave>5</octave>
              </pitch>
              <duration>120</duration>
              <voice>1</voice>
              <type>eighth</type>
              <stem>down</stem>
              <staff>1</staff>
              <notations>
              </notations>
          </note>
          <note>
              <chord/>
              <pitch>
                  <step>B</step>
                  <octave>4</octave>
              </pitch>
              <duration>120</duration>
              <voice>1</voice>
              <type>eighth</type>
              <stem>down</stem>
              <staff>1</staff>
              <notations>
              </notations>
          </note>
          <note>
              <pitch>
                  <step>E</step>
                  <octave>5</octave>
              </pitch>
              <duration>120</duration>
              <voice>1</voice>
              <type>eighth</type>
              <stem>down</stem>
              <staff>1</staff>
              <notations>
              </notations>
          </note>
          <note>
              <chord/>
              <pitch>
                  <step>B</step>
                  <octave>4</octave>
              </pitch>
              <duration>120</duration>
              <voice>1</voice>
              <type>eighth</type>
              <stem>down</stem>
              <staff>1</staff>
              <notations>
              </notations>
          </note>
      </measure>
      <measure  number="2">
          <attributes>
          </attributes>
          <note>
              <pitch>
                  <step>G</step>
                  <octave>5</octave>
              </pitch>
              <duration>240</duration>
              <voice>1</voice>
              <type>quarter</type>
              <stem>down</stem>
              <staff>1</staff>
              <notations>
              </notations>
          </note>
          <note>
              <chord/>
              <pitch>
                  <step>D</step>
                  <octave>5</octave>
              </pitch>
              <duration>240</duration>
              <voice>1</voice>
              <type>quarter</type>
              <stem>down</stem>
              <staff>1</staff>
              <notations>
              </notations>
          </note>
          <note>
              <rest/>
              <duration>240</duration>
              <voice>1</voice>
              <type>quarter</type>
              <staff>1</staff>
          </note>
          <note>
              <pitch>
                  <step>G</step>
                  <octave>4</octave>
              </pitch>
              <duration>240</duration>
              <voice>1</voice>
              <type>quarter</type>
              <stem>up</stem>
              <staff>1</staff>
              <notations>
              </notations>
          </note>
          <note>
              <rest/>
              <duration>240</duration>
              <voice>1</voice>
              <type>quarter</type>
              <staff>1</staff>
          </note>
      </measure>
      <measure  number="3">
          <attributes>
          </attributes>
          <note>
              <pitch>
                  <step>C</step>
                  <octave>5</octave>
              </pitch>
              <duration>240</duration>
              <voice>1</voice>
              <type>quarter</type>
              <stem>down</stem>
              <staff>1</staff>
              <notations>
              </notations>
          </note>
          <note>
              <rest/>
              <duration>120</duration>
              <voice>1</voice>
              <type>eighth</type>
              <staff>1</staff>
          </note>
          <note>
              <pitch>
                  <step>G</step>
                  <octave>4</octave>
              </pitch>
              <duration>240</duration>
              <voice>1</voice>
              <type>quarter</type>
              <stem>up</stem>
              <staff>1</staff>
              <notations>
              </notations>
          </note>
          <note>
              <rest/>
              <duration>120</duration>
              <voice>1</voice>
              <type>eighth</type>
              <staff>1</staff>
          </note>
          <note>
              <pitch>
                  <step>E</step>
                  <octave>4</octave>
              </pitch>
              <duration>240</duration>
              <voice>1</voice>
              <type>quarter</type>
              <stem>up</stem>
              <staff>1</staff>
              <notations>
              </notations>
          </note>
      </measure>
      <measure  number="4">
          <attributes>
          </attributes>
          <note>
              <rest/>
              <duration>120</duration>
              <voice>1</voice>
              <type>eighth</type>
              <staff>1</staff>
          </note>
          <note>
              <pitch>
                  <step>A</step>
                  <octave>4</octave>
              </pitch>
              <duration>240</duration>
              <voice>1</voice>
              <type>quarter</type>
              <stem>up</stem>
              <staff>1</staff>
              <notations>
              </notations>
          </note>
          <note>
              <pitch>
                  <step>B</step>
                  <octave>4</octave>
              </pitch>
              <duration>240</duration>
              <voice>1</voice>
              <type>quarter</type>
              <stem>down</stem>
              <staff>1</staff>
              <notations>
              </notations>
          </note>
          <note>
              <pitch>
                  <step>B</step>
                  <alter>-1</alter>
                  <octave>4</octave>
              </pitch>
              <duration>120</duration>
              <voice>1</voice>
              <type>eighth</type>
              <accidental cautionary="no">flat</accidental>
              <stem>down</stem>
              <staff>1</staff>
              <notations>
              </notations>
          </note>
          <note>
              <pitch>
                  <step>A</step>
                  <octave>4</octave>
              </pitch>
              <duration>240</duration>
              <voice>1</voice>
              <type>quarter</type>
              <stem>up</stem>
              <staff>1</staff>
              <notations>
              </notations>
          </note>
      </measure>
      <measure  number="5">
          <attributes>
          </attributes>
          <note>
              <pitch>
                  <step>G</step>
                  <octave>4</octave>
              </pitch>
              <duration>120</duration>
              <voice>1</voice>
              <type>eighth</type>
              <stem>down</stem>
              <staff>1</staff>
              <beam number="1">begin</beam>
              <notations>
              </notations>
          </note>
          <note>
              <pitch>
                  <step>E</step>
                  <octave>5</octave>
              </pitch>
              <duration>120</duration>
              <voice>1</voice>
              <type>eighth</type>
              <stem>down</stem>
              <staff>1</staff>
              <beam number="1">end</beam>
              <notations>
              </notations>
          </note>
          <note>
              <rest/>
              <duration>120</duration>
              <voice>1</voice>
              <type>eighth</type>
              <staff>1</staff>
          </note>
          <note>
              <pitch>
                  <step>G</step>
                  <octave>5</octave>
              </pitch>
              <duration>120</duration>
              <voice>1</voice>
              <type>eighth</type>
              <stem>down</stem>
              <staff>1</staff>
              <notations>
              </notations>
          </note>
          <note>
              <pitch>
                  <step>A</step>
                  <octave>5</octave>
              </pitch>
              <duration>120</duration>
              <voice>1</voice>
              <type>eighth</type>
              <stem>down</stem>
              <staff>1</staff>
              <notations>
              </notations>
          </note>
          <note>
              <rest/>
              <duration>120</duration>
              <voice>1</voice>
              <type>eighth</type>
              <staff>1</staff>
          </note>
          <note>
              <pitch>
                  <step>F</step>
                  <octave>5</octave>
              </pitch>
              <duration>120</duration>
              <voice>1</voice>
              <type>eighth</type>
              <stem>down</stem>
              <staff>1</staff>
              <beam number="1">begin</beam>
              <notations>
              </notations>
          </note>
          <backup>
              <duration>120</duration>
          </backup>
          <forward>
              <duration>120</duration>
          </forward>
          <note>
              <pitch>
                  <step>G</step>
                  <octave>5</octave>
              </pitch>
              <duration>120</duration>
              <voice>1</voice>
              <type>eighth</type>
              <stem>down</stem>
              <staff>1</staff>
              <beam number="1">end</beam>
              <notations>
              </notations>
          </note>
      </measure>
      <measure  number="6">
          <attributes>
          </attributes>
          <note>
              <rest/>
              <duration>120</duration>
              <voice>1</voice>
              <type>eighth</type>
              <staff>1</staff>
          </note>
          <note>
              <pitch>
                  <step>E</step>
                  <octave>5</octave>
              </pitch>
              <duration>120</duration>
              <voice>1</voice>
              <type>eighth</type>
              <stem>down</stem>
              <staff>1</staff>
              <notations>
              </notations>
          </note>
          <note>
              <rest/>
              <duration>120</duration>
              <voice>1</voice>
              <type>eighth</type>
              <staff>1</staff>
          </note>
          <note>
              <pitch>
                  <step>C</step>
                  <octave>5</octave>
              </pitch>
              <duration>120</duration>
              <voice>1</voice>
              <type>eighth</type>
              <stem>down</stem>
              <staff>1</staff>
              <notations>
              </notations>
          </note>
          <note>
              <pitch>
                  <step>D</step>
                  <octave>5</octave>
              </pitch>
              <duration>120</duration>
              <voice>1</voice>
              <type>eighth</type>
              <stem>down</stem>
              <staff>1</staff>
              <beam number="1">begin</beam>
              <notations>
              </notations>
          </note>
          <backup>
              <duration>120</duration>
          </backup>
          <forward>
              <duration>120</duration>
          </forward>
          <note>
              <pitch>
                  <step>B</step>
                  <octave>4</octave>
              </pitch>
              <duration>120</duration>
              <voice>1</voice>
              <type>eighth</type>
              <stem>down</stem>
              <staff>1</staff>
              <beam number="1">end</beam>
              <notations>
              </notations>
          </note>
          <note>
              <rest/>
              <duration>240</duration>
              <voice>1</voice>
              <type>quarter</type>
              <staff>1</staff>
          </note>
      </measure>
      <measure  number="7">
          <attributes>
          </attributes>
          <note>
              <pitch>
                  <step>C</step>
                  <octave>5</octave>
              </pitch>
              <duration>240</duration>
              <voice>1</voice>
              <type>quarter</type>
              <stem>down</stem>
              <staff>1</staff>
              <notations>
              </notations>
          </note>
          <note>
              <rest/>
              <duration>120</duration>
              <voice>1</voice>
              <type>eighth</type>
              <staff>1</staff>
          </note>
          <note>
              <pitch>
                  <step>G</step>
                  <octave>4</octave>
              </pitch>
              <duration>240</duration>
              <voice>1</voice>
              <type>quarter</type>
              <stem>up</stem>
              <staff>1</staff>
              <notations>
              </notations>
          </note>
          <note>
              <rest/>
              <duration>120</duration>
              <voice>1</voice>
              <type>eighth</type>
              <staff>1</staff>
          </note>
          <note>
              <pitch>
                  <step>E</step>
                  <octave>4</octave>
              </pitch>
              <duration>240</duration>
              <voice>1</voice>
              <type>quarter</type>
              <stem>up</stem>
              <staff>1</staff>
              <notations>
              </notations>
          </note>
      </measure>
      <measure  number="8">
          <attributes>
          </attributes>
          <note>
              <rest/>
              <duration>120</duration>
              <voice>1</voice>
              <type>eighth</type>
              <staff>1</staff>
          </note>
          <note>
              <pitch>
                  <step>A</step>
                  <octave>4</octave>
              </pitch>
              <duration>240</duration>
              <voice>1</voice>
              <type>quarter</type>
              <stem>up</stem>
              <staff>1</staff>
              <notations>
              </notations>
          </note>
          <note>
              <pitch>
                  <step>B</step>
                  <octave>4</octave>
              </pitch>
              <duration>240</duration>
              <voice>1</voice>
              <type>quarter</type>
              <stem>down</stem>
              <staff>1</staff>
              <notations>
              </notations>
          </note>
          <note>
              <pitch>
                  <step>B</step>
                  <alter>-1</alter>
                  <octave>4</octave>
              </pitch>
              <duration>120</duration>
              <voice>1</voice>
              <type>eighth</type>
              <accidental cautionary="no">flat</accidental>
              <stem>down</stem>
              <staff>1</staff>
              <notations>
              </notations>
          </note>
          <note>
              <pitch>
                  <step>A</step>
                  <octave>4</octave>
              </pitch>
              <duration>240</duration>
              <voice>1</voice>
              <type>quarter</type>
              <stem>up</stem>
              <staff>1</staff>
              <notations>
              </notations>
          </note>
      </measure>
      <measure  number="9">
          <attributes>
          </attributes>
          <note>
              <pitch>
                  <step>G</step>
                  <octave>4</octave>
              </pitch>
              <duration>120</duration>
              <voice>1</voice>
              <type>eighth</type>
              <stem>down</stem>
              <staff>1</staff>
              <beam number="1">begin</beam>
              <notations>
              </notations>
          </note>
          <note>
              <pitch>
                  <step>E</step>
                  <octave>5</octave>
              </pitch>
              <duration>120</duration>
              <voice>1</voice>
              <type>eighth</type>
              <stem>down</stem>
              <staff>1</staff>
              <beam number="1">end</beam>
              <notations>
              </notations>
          </note>
          <note>
              <rest/>
              <duration>120</duration>
              <voice>1</voice>
              <type>eighth</type>
              <staff>1</staff>
          </note>
          <note>
              <pitch>
                  <step>G</step>
                  <octave>5</octave>
              </pitch>
              <duration>120</duration>
              <voice>1</voice>
              <type>eighth</type>
              <stem>down</stem>
              <staff>1</staff>
              <notations>
              </notations>
          </note>
          <note>
              <pitch>
                  <step>A</step>
                  <octave>5</octave>
              </pitch>
              <duration>120</duration>
              <voice>1</voice>
              <type>eighth</type>
              <stem>down</stem>
              <staff>1</staff>
              <notations>
              </notations>
          </note>
          <note>
              <rest/>
              <duration>120</duration>
              <voice>1</voice>
              <type>eighth</type>
              <staff>1</staff>
          </note>
          <note>
              <pitch>
                  <step>F</step>
                  <octave>5</octave>
              </pitch>
              <duration>120</duration>
              <voice>1</voice>
              <type>eighth</type>
              <stem>down</stem>
              <staff>1</staff>
              <beam number="1">begin</beam>
              <notations>
              </notations>
          </note>
          <backup>
              <duration>120</duration>
          </backup>
          <forward>
              <duration>120</duration>
          </forward>
          <note>
              <pitch>
                  <step>G</step>
                  <octave>5</octave>
              </pitch>
              <duration>120</duration>
              <voice>1</voice>
              <type>eighth</type>
              <stem>down</stem>
              <staff>1</staff>
              <beam number="1">end</beam>
              <notations>
              </notations>
          </note>
      </measure>
      <measure  number="10">
          <attributes>
          </attributes>
          <note>
              <rest/>
              <duration>120</duration>
              <voice>1</voice>
              <type>eighth</type>
              <staff>1</staff>
          </note>
          <note>
              <pitch>
                  <step>E</step>
                  <octave>5</octave>
              </pitch>
              <duration>120</duration>
              <voice>1</voice>
              <type>eighth</type>
              <stem>down</stem>
              <staff>1</staff>
              <notations>
              </notations>
          </note>
          <note>
              <rest/>
              <duration>120</duration>
              <voice>1</voice>
              <type>eighth</type>
              <staff>1</staff>
          </note>
          <note>
              <pitch>
                  <step>C</step>
                  <octave>5</octave>
              </pitch>
              <duration>120</duration>
              <voice>1</voice>
              <type>eighth</type>
              <stem>down</stem>
              <staff>1</staff>
              <notations>
              </notations>
          </note>
          <note>
              <pitch>
                  <step>D</step>
                  <octave>5</octave>
              </pitch>
              <duration>120</duration>
              <voice>1</voice>
              <type>eighth</type>
              <stem>down</stem>
              <staff>1</staff>
              <beam number="1">begin</beam>
              <notations>
              </notations>
          </note>
          <backup>
              <duration>120</duration>
          </backup>
          <forward>
              <duration>120</duration>
          </forward>
          <note>
              <pitch>
                  <step>B</step>
                  <octave>4</octave>
              </pitch>
              <duration>120</duration>
              <voice>1</voice>
              <type>eighth</type>
              <stem>down</stem>
              <staff>1</staff>
              <beam number="1">end</beam>
              <notations>
              </notations>
          </note>
          <note>
              <rest/>
              <duration>240</duration>
              <voice>1</voice>
              <type>quarter</type>
              <staff>1</staff>
          </note>
      </measure>
      <measure  number="11">
          <attributes>
          </attributes>
          <note>
              <rest/>
              <duration>240</duration>
              <voice>1</voice>
              <type>quarter</type>
              <staff>1</staff>
          </note>
          <note>
              <pitch>
                  <step>G</step>
                  <octave>5</octave>
              </pitch>
              <duration>120</duration>
              <voice>1</voice>
              <type>eighth</type>
              <stem>down</stem>
              <staff>1</staff>
              <beam number="1">begin</beam>
              <notations>
              </notations>
          </note>
          <note>
              <pitch>
                  <step>F</step>
                  <alter>1</alter>
                  <octave>5</octave>
              </pitch>
              <duration>120</duration>
              <voice>1</voice>
              <type>eighth</type>
              <accidental cautionary="no">sharp</accidental>
              <stem>down</stem>
              <staff>1</staff>
              <beam number="1">end</beam>
              <notations>
              </notations>
          </note>
          <note>
              <pitch>
                  <step>F</step>
                  <octave>5</octave>
              </pitch>
              <duration>120</duration>
              <voice>1</voice>
              <type>eighth</type>
              <accidental cautionary="no">natural</accidental>
              <stem>down</stem>
              <staff>1</staff>
              <beam number="1">begin</beam>
              <notations>
              </notations>
          </note>
          <backup>
              <duration>120</duration>
          </backup>
          <forward>
              <duration>120</duration>
          </forward>
          <note>
              <pitch>
                  <step>D</step>
                  <alter>1</alter>
                  <octave>5</octave>
              </pitch>
              <duration>120</duration>
              <voice>1</voice>
              <type>eighth</type>
              <accidental cautionary="no">sharp</accidental>
              <stem>down</stem>
              <staff>1</staff>
              <beam number="1">end</beam>
              <notations>
              </notations>
          </note>
          <note>
              <rest/>
              <duration>120</duration>
              <voice>1</voice>
              <type>eighth</type>
              <staff>1</staff>
          </note>
          <note>
              <pitch>
                  <step>E</step>
                  <octave>5</octave>
              </pitch>
              <duration>120</duration>
              <voice>1</voice>
              <type>eighth</type>
              <stem>down</stem>
              <staff>1</staff>
              <notations>
              </notations>
          </note>
      </measure>
      <measure  number="12">
          <attributes>
          </attributes>
          <note>
              <rest/>
              <duration>120</duration>
              <voice>1</voice>
              <type>eighth</type>
              <staff>1</staff>
          </note>
          <note>
              <pitch>
                  <step>A</step>
                  <octave>4</octave>
              </pitch>
              <duration>240</duration>
              <voice>1</voice>
              <type>quarter</type>
              <stem>up</stem>
              <staff>1</staff>
              <notations>
              </notations>
          </note>
          <note>
              <pitch>
                  <step>C</step>
                  <octave>5</octave>
              </pitch>
              <duration>240</duration>
              <voice>1</voice>
              <type>quarter</type>
              <stem>down</stem>
              <staff>1</staff>
              <notations>
              </notations>
          </note>
          <note>
              <pitch>
                  <step>A</step>
                  <octave>4</octave>
              </pitch>
              <duration>120</duration>
              <voice>1</voice>
              <type>eighth</type>
              <stem>down</stem>
              <staff>1</staff>
              <notations>
              </notations>
          </note>
          <note>
              <pitch>
                  <step>C</step>
                  <octave>5</octave>
              </pitch>
              <duration>120</duration>
              <voice>1</voice>
              <type>eighth</type>
              <stem>down</stem>
              <staff>1</staff>
              <beam number="1">begin</beam>
              <notations>
              </notations>
          </note>
          <backup>
              <duration>120</duration>
          </backup>
          <forward>
              <duration>120</duration>
          </forward>
          <note>
              <pitch>
                  <step>D</step>
                  <octave>5</octave>
              </pitch>
              <duration>120</duration>
              <voice>1</voice>
              <type>eighth</type>
              <stem>down</stem>
              <staff>1</staff>
              <beam number="1">end</beam>
              <notations>
              </notations>
          </note>
      </measure>
      <measure  number="13">
          <attributes>
          </attributes>
          <note>
              <rest/>
              <duration>240</duration>
              <voice>1</voice>
              <type>quarter</type>
              <staff>1</staff>
          </note>
          <note>
              <pitch>
                  <step>G</step>
                  <octave>5</octave>
              </pitch>
              <duration>120</duration>
              <voice>1</voice>
              <type>eighth</type>
              <stem>down</stem>
              <staff>1</staff>
              <beam number="1">begin</beam>
              <notations>
              </notations>
          </note>
          <note>
              <pitch>
                  <step>F</step>
                  <alter>1</alter>
                  <octave>5</octave>
              </pitch>
              <duration>120</duration>
              <voice>1</voice>
              <type>eighth</type>
              <accidental cautionary="no">sharp</accidental>
              <stem>down</stem>
              <staff>1</staff>
              <beam number="1">end</beam>
              <notations>
              </notations>
          </note>
          <note>
              <pitch>
                  <step>F</step>
                  <octave>5</octave>
              </pitch>
              <duration>120</duration>
              <voice>1</voice>
              <type>eighth</type>
              <accidental cautionary="no">natural</accidental>
              <stem>down</stem>
              <staff>1</staff>
              <beam number="1">begin</beam>
              <notations>
              </notations>
          </note>
          <backup>
              <duration>120</duration>
          </backup>
          <forward>
              <duration>120</duration>
          </forward>
          <note>
              <pitch>
                  <step>D</step>
                  <alter>1</alter>
                  <octave>5</octave>
              </pitch>
              <duration>120</duration>
              <voice>1</voice>
              <type>eighth</type>
              <accidental cautionary="no">sharp</accidental>
              <stem>down</stem>
              <staff>1</staff>
              <beam number="1">end</beam>
              <notations>
              </notations>
          </note>
          <note>
              <rest/>
              <duration>120</duration>
              <voice>1</voice>
              <type>eighth</type>
              <staff>1</staff>
          </note>
          <note>
              <pitch>
                  <step>E</step>
                  <octave>5</octave>
              </pitch>
              <duration>120</duration>
              <voice>1</voice>
              <type>eighth</type>
              <stem>down</stem>
              <staff>1</staff>
              <notations>
              </notations>
          </note>
      </measure>
      <measure  number="14">
          <attributes>
          </attributes>
          <note>
              <rest/>
              <duration>120</duration>
              <voice>1</voice>
              <type>eighth</type>
              <staff>1</staff>
          </note>
          <note>
              <pitch>
                  <step>C</step>
                  <octave>6</octave>
              </pitch>
              <duration>120</duration>
              <voice>1</voice>
              <type>eighth</type>
              <stem>down</stem>
              <staff>1</staff>
              <notations>
              </notations>
          </note>
          <note>
              <chord/>
              <pitch>
                  <step>G</step>
                  <octave>5</octave>
              </pitch>
              <duration>120</duration>
              <voice>1</voice>
              <type>eighth</type>
              <stem>down</stem>
              <staff>1</staff>
              <notations>
              </notations>
          </note>
          <note>
              <rest/>
              <duration>120</duration>
              <voice>1</voice>
              <type>eighth</type>
              <staff>1</staff>
          </note>
          <note>
              <pitch>
                  <step>C</step>
                  <octave>6</octave>
              </pitch>
              <duration>120</duration>
              <voice>1</voice>
              <type>eighth</type>
              <stem>down</stem>
              <staff>1</staff>
              <notations>
              </notations>
          </note>
          <note>
              <chord/>
              <pitch>
                  <step>G</step>
                  <octave>5</octave>
              </pitch>
              <duration>120</duration>
              <voice>1</voice>
              <type>eighth</type>
              <stem>down</stem>
              <staff>1</staff>
              <notations>
              </notations>
          </note>
          <note>
              <pitch>
                  <step>C</step>
                  <octave>6</octave>
              </pitch>
              <duration>120</duration>
              <voice>1</voice>
              <type>eighth</type>
              <stem>down</stem>
              <staff>1</staff>
              <notations>
              </notations>
          </note>
          <note>
              <chord/>
              <pitch>
                  <step>G</step>
                  <octave>5</octave>
              </pitch>
              <duration>120</duration>
              <voice>1</voice>
              <type>eighth</type>
              <stem>down</stem>
              <staff>1</staff>
              <notations>
              </notations>
          </note>
          <note>
              <rest/>
              <duration>120</duration>
              <voice>1</voice>
              <type>eighth</type>
              <staff>1</staff>
          </note>
          <note>
              <rest/>
              <duration>240</duration>
              <voice>1</voice>
              <type>quarter</type>
              <staff>1</staff>
          </note>
      </measure>
      <measure  number="15">
          <attributes>
          </attributes>
          <note>
              <rest/>
              <duration>240</duration>
              <voice>1</voice>
              <type>quarter</type>
              <staff>1</staff>
          </note>
          <note>
              <pitch>
                  <step>G</step>
                  <octave>5</octave>
              </pitch>
              <duration>120</duration>
              <voice>1</voice>
              <type>eighth</type>
              <stem>down</stem>
              <staff>1</staff>
              <beam number="1">begin</beam>
              <notations>
              </notations>
          </note>
          <note>
              <pitch>
                  <step>F</step>
                  <alter>1</alter>
                  <octave>5</octave>
              </pitch>
              <duration>120</duration>
              <voice>1</voice>
              <type>eighth</type>
              <accidental cautionary="no">sharp</accidental>
              <stem>down</stem>
              <staff>1</staff>
              <beam number="1">end</beam>
              <notations>
              </notations>
          </note>
          <note>
              <pitch>
                  <step>F</step>
                  <octave>5</octave>
              </pitch>
              <duration>120</duration>
              <voice>1</voice>
              <type>eighth</type>
              <accidental cautionary="no">natural</accidental>
              <stem>down</stem>
              <staff>1</staff>
              <beam number="1">begin</beam>
              <notations>
              </notations>
          </note>
          <backup>
              <duration>120</duration>
          </backup>
          <forward>
              <duration>120</duration>
          </forward>
          <note>
              <pitch>
                  <step>D</step>
                  <alter>1</alter>
                  <octave>5</octave>
              </pitch>
              <duration>120</duration>
              <voice>1</voice>
              <type>eighth</type>
              <accidental cautionary="no">sharp</accidental>
              <stem>down</stem>
              <staff>1</staff>
              <beam number="1">end</beam>
              <notations>
              </notations>
          </note>
          <note>
              <rest/>
              <duration>120</duration>
              <voice>1</voice>
              <type>eighth</type>
              <staff>1</staff>
          </note>
          <note>
              <pitch>
                  <step>E</step>
                  <octave>5</octave>
              </pitch>
              <duration>120</duration>
              <voice>1</voice>
              <type>eighth</type>
              <stem>down</stem>
              <staff>1</staff>
              <notations>
              </notations>
          </note>
      </measure>
      <measure  number="16">
          <attributes>
          </attributes>
          <note>
              <rest/>
              <duration>120</duration>
              <voice>1</voice>
              <type>eighth</type>
              <staff>1</staff>
          </note>
          <note>
              <pitch>
                  <step>A</step>
                  <octave>4</octave>
              </pitch>
              <duration>240</duration>
              <voice>1</voice>
              <type>quarter</type>
              <stem>up</stem>
              <staff>1</staff>
              <notations>
              </notations>
          </note>
          <note>
              <pitch>
                  <step>C</step>
                  <octave>5</octave>
              </pitch>
              <duration>240</duration>
              <voice>1</voice>
              <type>quarter</type>
              <stem>down</stem>
              <staff>1</staff>
              <notations>
              </notations>
          </note>
          <note>
              <pitch>
                  <step>A</step>
                  <octave>4</octave>
              </pitch>
              <duration>120</duration>
              <voice>1</voice>
              <type>eighth</type>
              <stem>down</stem>
              <staff>1</staff>
              <notations>
              </notations>
          </note>
          <note>
              <pitch>
                  <step>C</step>
                  <octave>5</octave>
              </pitch>
              <duration>120</duration>
              <voice>1</voice>
              <type>eighth</type>
              <stem>down</stem>
              <staff>1</staff>
              <beam number="1">begin</beam>
              <notations>
              </notations>
          </note>
          <backup>
              <duration>120</duration>
          </backup>
          <forward>
              <duration>120</duration>
          </forward>
          <note>
              <pitch>
                  <step>D</step>
                  <octave>5</octave>
              </pitch>
              <duration>120</duration>
              <voice>1</voice>
              <type>eighth</type>
              <stem>down</stem>
              <staff>1</staff>
              <beam number="1">end</beam>
              <notations>
              </notations>
          </note>
      </measure>
      <measure  number="17">
          <attributes>
          </attributes>
          <note>
              <rest/>
              <duration>240</duration>
              <voice>1</voice>
              <type>quarter</type>
              <staff>1</staff>
          </note>
          <note>
              <pitch>
                  <step>D</step>
                  <alter>1</alter>
                  <octave>5</octave>
              </pitch>
              <duration>240</duration>
              <voice>1</voice>
              <type>quarter</type>
              <accidental cautionary="no">sharp</accidental>
              <stem>down</stem>
              <staff>1</staff>
              <notations>
              </notations>
          </note>
          <note>
              <rest/>
              <duration>120</duration>
              <voice>1</voice>
              <type>eighth</type>
              <staff>1</staff>
          </note>
          <note>
              <pitch>
                  <step>D</step>
                  <octave>5</octave>
              </pitch>
              <duration>240</duration>
              <voice>1</voice>
              <type>quarter</type>
              <accidental cautionary="no">natural</accidental>
              <stem>down</stem>
              <staff>1</staff>
              <notations>
              </notations>
          </note>
          <note>
              <rest/>
              <duration>120</duration>
              <voice>1</voice>
              <type>eighth</type>
              <staff>1</staff>
          </note>
      </measure>
      <measure  number="18">
          <attributes>
          </attributes>
          <note>
              <rest/>
              <duration>960</duration>
              <voice>5</voice>
              <type>whole</type>
              <staff>2</staff>
          </note>
          <backup>
              <duration>960</duration>
          </backup>
          <note>
              <pitch>
                  <step>C</step>
                  <octave>5</octave>
              </pitch>
              <duration>960</duration>
              <voice>1</voice>
              <type>whole</type>
              <stem>down</stem>
              <staff>1</staff>
              <notations>
              </notations>
          </note>
      </measure>
      <measure  number="19">
          <attributes>
          </attributes>
          <note>
              <pitch>
                  <step>C</step>
                  <octave>5</octave>
              </pitch>
              <duration>120</duration>
              <voice>1</voice>
              <type>eighth</type>
              <stem>down</stem>
              <staff>1</staff>
              <beam number="1">begin</beam>
              <notations>
              </notations>
          </note>
          <note>
              <pitch>
                  <step>C</step>
                  <octave>5</octave>
              </pitch>
              <duration>120</duration>
              <voice>1</voice>
              <type>eighth</type>
              <stem>down</stem>
              <staff>1</staff>
              <beam number="1">end</beam>
              <notations>
              </notations>
          </note>
          <note>
              <rest/>
              <duration>120</duration>
              <voice>1</voice>
              <type>eighth</type>
              <staff>1</staff>
          </note>
          <note>
              <pitch>
                  <step>C</step>
                  <octave>5</octave>
              </pitch>
              <duration>120</duration>
              <voice>1</voice>
              <type>eighth</type>
              <stem>down</stem>
              <staff>1</staff>
              <notations>
              </notations>
          </note>
          <note>
              <rest/>
              <duration>120</duration>
              <voice>1</voice>
              <type>eighth</type>
              <staff>1</staff>
          </note>
          <note>
              <pitch>
                  <step>C</step>
                  <octave>5</octave>
              </pitch>
              <duration>120</duration>
              <voice>1</voice>
              <type>eighth</type>
              <stem>down</stem>
              <staff>1</staff>
              <notations>
              </notations>
          </note>
          <note>
              <pitch>
                  <step>D</step>
                  <octave>5</octave>
              </pitch>
              <duration>120</duration>
              <voice>1</voice>
              <type>eighth</type>
              <stem>down</stem>
              <staff>1</staff>
              <notations>
              </notations>
          </note>
      </measure>
      <measure  number="20">
          <attributes>
          </attributes>
          <note>
              <pitch>
                  <step>E</step>
                  <octave>5</octave>
              </pitch>
              <duration>120</duration>
              <voice>1</voice>
              <type>eighth</type>
              <stem>down</stem>
              <staff>1</staff>
              <beam number="1">begin</beam>
              <notations>
              </notations>
          </note>
          <note>
              <pitch>
                  <step>C</step>
                  <octave>5</octave>
              </pitch>
              <duration>120</duration>
              <voice>1</voice>
              <type>eighth</type>
              <stem>down</stem>
              <staff>1</staff>
              <beam number="1">end</beam>
              <notations>
              </notations>
          </note>
          <note>
              <rest/>
              <duration>120</duration>
              <voice>1</voice>
              <type>eighth</type>
              <staff>1</staff>
          </note>
          <note>
              <pitch>
                  <step>A</step>
                  <octave>4</octave>
              </pitch>
              <duration>120</duration>
              <voice>1</voice>
              <type>eighth</type>
              <stem>down</stem>
              <staff>1</staff>
              <notations>
              </notations>
          </note>
          <note>
              <pitch>
                  <step>G</step>
                  <octave>4</octave>
              </pitch>
              <duration>120</duration>
              <voice>1</voice>
              <type>eighth</type>
              <stem>down</stem>
              <staff>1</staff>
              <notations>
              </notations>
          </note>
          <note>
              <rest/>
              <duration>120</duration>
              <voice>1</voice>
              <type>eighth</type>
              <staff>1</staff>
          </note>
          <note>
              <rest/>
              <duration>240</duration>
              <voice>1</voice>
              <type>quarter</type>
              <staff>1</staff>
          </note>
      </measure>
      <measure  number="21">
          <attributes>
          </attributes>
          <note>
              <pitch>
                  <step>C</step>
                  <octave>5</octave>
              </pitch>
              <duration>120</duration>
              <voice>1</voice>
              <type>eighth</type>
              <stem>down</stem>
              <staff>1</staff>
              <beam number="1">begin</beam>
              <notations>
              </notations>
          </note>
          <note>
              <pitch>
                  <step>C</step>
                  <octave>5</octave>
              </pitch>
              <duration>120</duration>
              <voice>1</voice>
              <type>eighth</type>
              <stem>down</stem>
              <staff>1</staff>
              <beam number="1">end</beam>
              <notations>
              </notations>
          </note>
          <note>
              <rest/>
              <duration>120</duration>
              <voice>1</voice>
              <type>eighth</type>
              <staff>1</staff>
          </note>
          <note>
              <pitch>
                  <step>C</step>
                  <octave>5</octave>
              </pitch>
              <duration>120</duration>
              <voice>1</voice>
              <type>eighth</type>
              <stem>down</stem>
              <staff>1</staff>
              <notations>
              </notations>
          </note>
          <note>
              <rest/>
              <duration>120</duration>
              <voice>1</voice>
              <type>eighth</type>
              <staff>1</staff>
          </note>
          <note>
              <pitch>
                  <step>C</step>
                  <octave>5</octave>
              </pitch>
              <duration>120</duration>
              <voice>1</voice>
              <type>eighth</type>
              <stem>down</stem>
              <staff>1</staff>
              <notations>
              </notations>
          </note>
          <note>
              <pitch>
                  <step>D</step>
                  <octave>5</octave>
              </pitch>
              <duration>120</duration>
              <voice>1</voice>
              <type>eighth</type>
              <stem>down</stem>
              <staff>1</staff>
              <beam number="1">begin</beam>
              <notations>
              </notations>
          </note>
          <backup>
              <duration>120</duration>
          </backup>
          <forward>
              <duration>120</duration>
          </forward>
          <note>
              <pitch>
                  <step>E</step>
                  <octave>5</octave>
              </pitch>
              <duration>120</duration>
              <voice>1</voice>
              <type>eighth</type>
              <stem>down</stem>
              <staff>1</staff>
              <beam number="1">end</beam>
              <notations>
              </notations>
          </note>
      </measure>
      <measure  number="22">
          <attributes>
          </attributes>
          <note>
              <rest/>
              <duration>960</duration>
              <voice>1</voice>
              <type>whole</type>
              <staff>1</staff>
          </note>
      </measure>
      <measure  number="23">
          <attributes>
          </attributes>
          <note>
              <pitch>
                  <step>C</step>
                  <octave>5</octave>
              </pitch>
              <duration>120</duration>
              <voice>1</voice>
              <type>eighth</type>
              <stem>down</stem>
              <staff>1</staff>
              <beam number="1">begin</beam>
              <notations>
              </notations>
          </note>
          <note>
              <pitch>
                  <step>C</step>
                  <octave>5</octave>
              </pitch>
              <duration>120</duration>
              <voice>1</voice>
              <type>eighth</type>
              <stem>down</stem>
              <staff>1</staff>
              <beam number="1">end</beam>
              <notations>
              </notations>
          </note>
          <note>
              <rest/>
              <duration>120</duration>
              <voice>1</voice>
              <type>eighth</type>
              <staff>1</staff>
          </note>
          <note>
              <pitch>
                  <step>C</step>
                  <octave>5</octave>
              </pitch>
              <duration>120</duration>
              <voice>1</voice>
              <type>eighth</type>
              <stem>down</stem>
              <staff>1</staff>
              <notations>
              </notations>
          </note>
          <note>
              <rest/>
              <duration>120</duration>
              <voice>1</voice>
              <type>eighth</type>
              <staff>1</staff>
          </note>
          <note>
              <pitch>
                  <step>C</step>
                  <octave>5</octave>
              </pitch>
              <duration>120</duration>
              <voice>1</voice>
              <type>eighth</type>
              <stem>down</stem>
              <staff>1</staff>
              <notations>
              </notations>
          </note>
          <note>
              <pitch>
                  <step>D</step>
                  <octave>5</octave>
              </pitch>
              <duration>120</duration>
              <voice>1</voice>
              <type>eighth</type>
              <stem>down</stem>
              <staff>1</staff>
              <notations>
              </notations>
          </note>
      </measure>
      <measure  number="24">
          <attributes>
          </attributes>
          <note>
              <pitch>
                  <step>E</step>
                  <octave>5</octave>
              </pitch>
              <duration>120</duration>
              <voice>1</voice>
              <type>eighth</type>
              <stem>down</stem>
              <staff>1</staff>
              <beam number="1">begin</beam>
              <notations>
              </notations>
          </note>
          <note>
              <pitch>
                  <step>C</step>
                  <octave>5</octave>
              </pitch>
              <duration>120</duration>
              <voice>1</voice>
              <type>eighth</type>
              <stem>down</stem>
              <staff>1</staff>
              <beam number="1">end</beam>
              <notations>
              </notations>
          </note>
          <note>
              <rest/>
              <duration>120</duration>
              <voice>1</voice>
              <type>eighth</type>
              <staff>1</staff>
          </note>
          <note>
              <pitch>
                  <step>A</step>
                  <octave>4</octave>
              </pitch>
              <duration>120</duration>
              <voice>1</voice>
              <type>eighth</type>
              <stem>down</stem>
              <staff>1</staff>
              <notations>
              </notations>
          </note>
          <note>
              <pitch>
                  <step>G</step>
                  <octave>4</octave>
              </pitch>
              <duration>120</duration>
              <voice>1</voice>
              <type>eighth</type>
              <stem>down</stem>
              <staff>1</staff>
              <notations>
              </notations>
          </note>
          <note>
              <rest/>
              <duration>120</duration>
              <voice>1</voice>
              <type>eighth</type>
              <staff>1</staff>
          </note>
          <note>
              <rest/>
              <duration>240</duration>
              <voice>1</voice>
              <type>quarter</type>
              <staff>1</staff>
          </note>
      </measure>
      <measure  number="25">
          <attributes>
          </attributes>
          <note>
              <pitch>
                  <step>E</step>
                  <octave>5</octave>
              </pitch>
              <duration>120</duration>
              <voice>1</voice>
              <type>eighth</type>
              <stem>down</stem>
              <staff>1</staff>
              <beam number="1">begin</beam>
              <notations>
              </notations>
          </note>
          <note>
              <chord/>
              <pitch>
                  <step>B</step>
                  <octave>4</octave>
              </pitch>
              <duration>120</duration>
              <voice>1</voice>
              <type>eighth</type>
              <stem>down</stem>
              <staff>1</staff>
              <notations>
              </notations>
          </note>
          <note>
              <pitch>
                  <step>E</step>
                  <octave>5</octave>
              </pitch>
              <duration>120</duration>
              <voice>1</voice>
              <type>eighth</type>
              <stem>down</stem>
              <staff>1</staff>
              <beam number="1">end</beam>
              <notations>
              </notations>
          </note>
          <note>
              <chord/>
              <pitch>
                  <step>B</step>
                  <octave>4</octave>
              </pitch>
              <duration>120</duration>
              <voice>1</voice>
              <type>eighth</type>
              <stem>down</stem>
              <staff>1</staff>
              <notations>
              </notations>
          </note>
          <note>
              <rest/>
              <duration>120</duration>
              <voice>1</voice>
              <type>eighth</type>
              <staff>1</staff>
          </note>
          <note>
              <pitch>
                  <step>E</step>
                  <octave>5</octave>
              </pitch>
              <duration>240</duration>
              <voice>1</voice>
              <type>quarter</type>
              <stem>down</stem>
              <staff>1</staff>
              <notations>
              </notations>
          </note>
          <note>
              <chord/>
              <pitch>
                  <step>B</step>
                  <octave>4</octave>
              </pitch>
              <duration>240</duration>
              <voice>1</voice>
              <type>quarter</type>
              <stem>down</stem>
              <staff>1</staff>
              <notations>
              </notations>
          </note>
          <note>
              <pitch>
                  <step>E</step>
                  <octave>5</octave>
              </pitch>
              <duration>120</duration>
              <voice>1</voice>
              <type>eighth</type>
              <stem>down</stem>
              <staff>1</staff>
              <notations>
              </notations>
          </note>
          <note>
              <chord/>
              <pitch>
                  <step>B</step>
                  <octave>4</octave>
              </pitch>
              <duration>120</duration>
              <voice>1</voice>
              <type>eighth</type>
              <stem>down</stem>
              <staff>1</staff>
              <notations>
              </notations>
          </note>
          <note>
              <pitch>
                  <step>E</step>
                  <octave>5</octave>
              </pitch>
              <duration>120</duration>
              <voice>1</voice>
              <type>eighth</type>
              <stem>down</stem>
              <staff>1</staff>
              <notations>
              </notations>
          </note>
          <note>
              <chord/>
              <pitch>
                  <step>B</step>
                  <octave>4</octave>
              </pitch>
              <duration>120</duration>
              <voice>1</voice>
              <type>eighth</type>
              <stem>down</stem>
              <staff>1</staff>
              <notations>
              </notations>
          </note>
      </measure>
      <measure  number="26">
          <attributes>
          </attributes>
          <note>
              <pitch>
                  <step>G</step>
                  <octave>5</octave>
              </pitch>
              <duration>240</duration>
              <voice>1</voice>
              <type>quarter</type>
              <stem>down</stem>
              <staff>1</staff>
              <notations>
              </notations>
          </note>
          <note>
              <chord/>
              <pitch>
                  <step>D</step>
                  <octave>5</octave>
              </pitch>
              <duration>240</duration>
              <voice>1</voice>
              <type>quarter</type>
              <stem>down</stem>
              <staff>1</staff>
              <notations>
              </notations>
          </note>
          <note>
              <rest/>
              <duration>240</duration>
              <voice>1</voice>
              <type>quarter</type>
              <staff>1</staff>
          </note>
          <note>
              <pitch>
                  <step>G</step>
                  <octave>4</octave>
              </pitch>
              <duration>240</duration>
              <voice>1</voice>
              <type>quarter</type>
              <stem>up</stem>
              <staff>1</staff>
              <notations>
              </notations>
          </note>
          <note>
              <rest/>
              <duration>240</duration>
              <voice>1</voice>
              <type>quarter</type>
              <staff>1</staff>
          </note>
      </measure>
      <measure  number="27">
          <attributes>
          </attributes>
          <note>
              <rest/>
              <duration>240</duration>
              <voice>1</voice>
              <type>quarter</type>
              <staff>1</staff>
          </note>
          <note>
              <pitch>
                  <step>D</step>
                  <octave>5</octave>
              </pitch>
              <duration>120</duration>
              <voice>1</voice>
              <type>eighth</type>
              <stem>down</stem>
              <staff>1</staff>
              <beam number="1">begin</beam>
              <notations>
              </notations>
          </note>
          <note>
              <pitch>
                  <step>D</step>
                  <octave>6</octave>
              </pitch>
              <duration>120</duration>
              <voice>1</voice>
              <type>eighth</type>
              <stem>down</stem>
              <staff>1</staff>
              <beam number="1">end</beam>
              <notations>
              </notations>
          </note>
          <note>
              <pitch>
                  <step>B</step>
                  <octave>4</octave>
              </pitch>
              <duration>120</duration>
              <voice>1</voice>
              <type>eighth</type>
              <stem>down</stem>
              <staff>1</staff>
              <beam number="1">begin</beam>
              <notations>
              </notations>
          </note>
          <backup>
              <duration>120</duration>
          </backup>
          <forward>
              <duration>120</duration>
          </forward>
          <note>
              <pitch>
                  <step>B</step>
                  <octave>5</octave>
              </pitch>
              <duration>120</duration>
              <voice>1</voice>
              <type>eighth</type>
              <stem>down</stem>
              <staff>1</staff>
              <beam number="1">continue</beam>
              <notations>
              </notations>
          </note>
          <note>
              <pitch>
                  <step>C</step>
                  <octave>5</octave>
              </pitch>
              <duration>120</duration>
              <voice>1</voice>
              <type>eighth</type>
              <stem>down</stem>
              <staff>1</staff>
              <beam number="1">continue</beam>
              <notations>
              </notations>
          </note>
          <note>
              <pitch>
                  <step>C</step>
                  <octave>6</octave>
              </pitch>
              <duration>120</duration>
              <voice>1</voice>
              <type>eighth</type>
              <stem>down</stem>
              <staff>1</staff>
              <beam number="1">end</beam>
              <notations>
              </notations>
          </note>
      </measure>
      <measure  number="28">
          <attributes>
          </attributes>
          <note>
              <rest/>
              <duration>960</duration>
              <voice>1</voice>
              <type>whole</type>
              <staff>1</staff>
          </note>
      </measure>
      <measure  number="29">
          <attributes>
          </attributes>
          <note>
              <pitch>
                  <step>D</step>
                  <octave>5</octave>
              </pitch>
              <duration>120</duration>
              <voice>1</voice>
              <type>eighth</type>
              <stem>down</stem>
              <staff>1</staff>
              <beam number="1">begin</beam>
              <notations>
              </notations>
          </note>
          <backup>
              <duration>120</duration>
          </backup>
          <forward>
              <duration>120</duration>
          </forward>
          <note>
              <pitch>
                  <step>D</step>
                  <octave>6</octave>
              </pitch>
              <duration>120</duration>
              <voice>1</voice>
              <type>eighth</type>
              <stem>down</stem>
              <staff>1</staff>
              <beam number="1">end</beam>
              <notations>
              </notations>
          </note>
          <note>
              <pitch>
                  <step>B</step>
                  <octave>4</octave>
              </pitch>
              <duration>120</duration>
              <voice>1</voice>
              <type>eighth</type>
              <stem>down</stem>
              <staff>1</staff>
              <beam number="1">begin</beam>
              <notations>
              </notations>
          </note>
          <note>
              <pitch>
                  <step>B</step>
                  <octave>5</octave>
              </pitch>
              <duration>120</duration>
              <voice>1</voice>
              <type>eighth</type>
              <stem>down</stem>
              <staff>1</staff>
              <beam number="1">continue</beam>
              <notations>
              </notations>
          </note>
          <note>
              <pitch>
                  <step>C</step>
                  <octave>5</octave>
              </pitch>
              <duration>120</duration>
              <voice>1</voice>
              <type>eighth</type>
              <stem>down</stem>
              <staff>1</staff>
              <beam number="1">continue</beam>
              <notations>
              </notations>
          </note>
          <backup>
              <duration>120</duration>
          </backup>
          <forward>
              <duration>120</duration>
          </forward>
          <note>
              <pitch>
                  <step>C</step>
                  <octave>6</octave>
              </pitch>
              <duration>120</duration>
              <voice>1</voice>
              <type>eighth</type>
              <stem>down</stem>
              <staff>1</staff>
              <beam number="1">end</beam>
              <notations>
              </notations>
          </note>
          <note>
              <rest/>
              <duration>240</duration>
              <voice>1</voice>
              <type>quarter</type>
              <staff>1</staff>
          </note>
      </measure>
      <measure  number="30">
          <attributes>
          </attributes>
          <note>
              <rest/>
              <duration>960</duration>
              <voice>1</voice>
              <type>whole</type>
              <staff>1</staff>
          </note>
      </measure>
      <measure  number="31">
          <attributes>
          </attributes>
          <note>
              <pitch>
                  <step>F</step>
                  <alter>1</alter>
                  <octave>4</octave>
              </pitch>
              <duration>120</duration>
              <voice>1</voice>
              <type>eighth</type>
              <accidental cautionary="no">sharp</accidental>
              <stem>up</stem>
              <staff>1</staff>
              <beam number="1">begin</beam>
              <notations>
              </notations>
          </note>
          <note>
              <pitch>
                  <step>F</step>
                  <alter>1</alter>
                  <octave>5</octave>
              </pitch>
              <duration>120</duration>
              <voice>1</voice>
              <type>eighth</type>
              <accidental cautionary="no">sharp</accidental>
              <stem>up</stem>
              <staff>1</staff>
              <beam number="1">continue</beam>
              <notations>
              </notations>
          </note>
          <note>
              <pitch>
                  <step>D</step>
                  <alter>1</alter>
                  <octave>4</octave>
              </pitch>
              <duration>120</duration>
              <voice>1</voice>
              <type>eighth</type>
              <accidental cautionary="no">sharp</accidental>
              <stem>up</stem>
              <staff>1</staff>
              <beam number="1">continue</beam>
              <notations>
              </notations>
          </note>
          <note>
              <pitch>
                  <step>D</step>
                  <alter>1</alter>
                  <octave>5</octave>
              </pitch>
              <duration>120</duration>
              <voice>1</voice>
              <type>eighth</type>
              <accidental cautionary="no">sharp</accidental>
              <stem>up</stem>
              <staff>1</staff>
              <beam number="1">end</beam>
              <notations>
              </notations>
          </note>
          <note>
              <pitch>
                  <step>E</step>
                  <octave>4</octave>
              </pitch>
              <duration>120</duration>
              <voice>1</voice>
              <type>eighth</type>
              <stem>up</stem>
              <staff>1</staff>
              <beam number="1">begin</beam>
              <notations>
              </notations>
          </note>
          <backup>
              <duration>120</duration>
          </backup>
          <forward>
              <duration>120</duration>
          </forward>
          <note>
              <pitch>
                  <step>E</step>
                  <octave>5</octave>
              </pitch>
              <duration>120</duration>
              <voice>1</voice>
              <type>eighth</type>
              <stem>up</stem>
              <staff>1</staff>
              <beam number="1">end</beam>
              <notations>
              </notations>
          </note>
          <note>
              <rest/>
              <duration>240</duration>
              <voice>1</voice>
              <type>quarter</type>
              <staff>1</staff>
          </note>
      </measure>
      <measure  number="32">
          <attributes>
          </attributes>
          <note>
              <rest/>
              <duration>960</duration>
              <voice>1</voice>
              <type>whole</type>
              <staff>1</staff>
          </note>
      </measure>
      <measure  number="33">
          <attributes>
          </attributes>
          <note>
              <pitch>
                  <step>F</step>
                  <alter>1</alter>
                  <octave>4</octave>
              </pitch>
              <duration>120</duration>
              <voice>1</voice>
              <type>eighth</type>
              <accidental cautionary="no">sharp</accidental>
              <stem>up</stem>
              <staff>1</staff>
              <beam number="1">begin</beam>
              <notations>
              </notations>
          </note>
          <note>
              <pitch>
                  <step>F</step>
                  <alter>1</alter>
                  <octave>5</octave>
              </pitch>
              <duration>120</duration>
              <voice>1</voice>
              <type>eighth</type>
              <accidental cautionary="no">sharp</accidental>
              <stem>up</stem>
              <staff>1</staff>
              <beam number="1">continue</beam>
              <notations>
              </notations>
          </note>
          <note>
              <pitch>
                  <step>D</step>
                  <alter>1</alter>
                  <octave>4</octave>
              </pitch>
              <duration>120</duration>
              <voice>1</voice>
              <type>eighth</type>
              <accidental cautionary="no">sharp</accidental>
              <stem>up</stem>
              <staff>1</staff>
              <beam number="1">continue</beam>
              <notations>
              </notations>
          </note>
          <note>
              <pitch>
                  <step>D</step>
                  <alter>1</alter>
                  <octave>5</octave>
              </pitch>
              <duration>120</duration>
              <voice>1</voice>
              <type>eighth</type>
              <accidental cautionary="no">sharp</accidental>
              <stem>up</stem>
              <staff>1</staff>
              <beam number="1">end</beam>
              <notations>
              </notations>
          </note>
          <note>
              <pitch>
                  <step>E</step>
                  <octave>4</octave>
              </pitch>
              <duration>120</duration>
              <voice>1</voice>
              <type>eighth</type>
              <stem>up</stem>
              <staff>1</staff>
              <beam number="1">begin</beam>
              <notations>
              </notations>
          </note>
          <backup>
              <duration>120</duration>
          </backup>
          <forward>
              <duration>120</duration>
          </forward>
          <note>
              <pitch>
                  <step>E</step>
                  <octave>5</octave>
              </pitch>
              <duration>120</duration>
              <voice>1</voice>
              <type>eighth</type>
              <stem>up</stem>
              <staff>1</staff>
              <beam number="1">end</beam>
              <notations>
              </notations>
          </note>
          <note>
              <rest/>
              <duration>240</duration>
              <voice>1</voice>
              <type>quarter</type>
              <staff>1</staff>
          </note>
      </measure>
      <measure  number="34">
          <attributes>
          </attributes>
          <note>
              <rest/>
              <duration>480</duration>
              <voice>1</voice>
              <type>half</type>
              <staff>1</staff>
          </note>
          <note>
              <rest/>
              <duration>240</duration>
              <voice>1</voice>
              <type>quarter</type>
              <staff>1</staff>
          </note>
          <note>
              <rest/>
              <duration>60</duration>
              <voice>1</voice>
              <type>16th</type>
              <staff>1</staff>
          </note>
          <note>
              <pitch>
                  <step>D</step>
                  <octave>5</octave>
              </pitch>
              <duration>60</duration>
              <voice>1</voice>
              <type>16th</type>
              <stem>down</stem>
              <staff>1</staff>
              <beam number="1">begin</beam>
              <notations>
              </notations>
          </note>
          <backup>
              <duration>60</duration>
          </backup>
          <forward>
              <duration>60</duration>
          </forward>
          <note>
              <pitch>
                  <step>C</step>
                  <alter>1</alter>
                  <octave>5</octave>
              </pitch>
              <duration>60</duration>
              <voice>1</voice>
              <type>16th</type>
              <accidental cautionary="no">sharp</accidental>
              <stem>down</stem>
              <staff>1</staff>
              <beam number="1">continue</beam>
              <notations>
              </notations>
          </note>
          <note>
              <pitch>
                  <step>C</step>
                  <octave>5</octave>
              </pitch>
              <duration>60</duration>
              <voice>1</voice>
              <type>16th</type>
              <accidental cautionary="no">natural</accidental>
              <stem>down</stem>
              <staff>1</staff>
              <beam number="1">end</beam>
              <notations>
              </notations>
          </note>
      </measure>
      <measure  number="35">
          <attributes>
          </attributes>
          <note>
              <rest/>
              <duration>960</duration>
              <voice>5</voice>
              <type>whole</type>
              <staff>2</staff>
          </note>
          <backup>
              <duration>960</duration>
          </backup>
          <note>
              <pitch>
                  <step>B</step>
                  <octave>4</octave>
              </pitch>
              <duration>120</duration>
              <voice>1</voice>
              <type>eighth</type>
              <stem>down</stem>
              <staff>1</staff>
              <notations>
              </notations>
          </note>
          <note>
              <rest/>
              <duration>120</duration>
              <voice>1</voice>
              <type>eighth</type>
              <staff>1</staff>
          </note>
          <note>
              <pitch>
                  <step>D</step>
                  <octave>5</octave>
              </pitch>
              <duration>240</duration>
              <voice>1</voice>
              <type>quarter</type>
              <stem>down</stem>
              <staff>1</staff>
              <notations>
              </notations>
          </note>
          <note>
              <pitch>
                  <step>C</step>
                  <alter>1</alter>
                  <octave>5</octave>
              </pitch>
              <duration>240</duration>
              <voice>1</voice>
              <type>quarter</type>
              <accidental cautionary="no">sharp</accidental>
              <stem>down</stem>
              <staff>1</staff>
              <notations>
              </notations>
          </note>
          <note>
              <pitch>
                  <step>G</step>
                  <alter>1</alter>
                  <octave>4</octave>
              </pitch>
              <duration>240</duration>
              <voice>1</voice>
              <type>quarter</type>
              <accidental cautionary="no">sharp</accidental>
              <stem>up</stem>
              <staff>1</staff>
              <notations>
              </notations>
          </note>
      </measure>
      <measure  number="36">
          <attributes>
          </attributes>
          <note>
              <pitch>
                  <step>G</step>
                  <octave>4</octave>
              </pitch>
              <duration>120</duration>
              <voice>1</voice>
              <type>eighth</type>
              <stem>up</stem>
              <staff>1</staff>
              <notations>
              </notations>
          </note>
          <note>
              <rest/>
              <duration>120</duration>
              <voice>1</voice>
              <type>eighth</type>
              <staff>1</staff>
          </note>
          <note>
              <pitch>
                  <step>C</step>
                  <alter>1</alter>
                  <octave>5</octave>
              </pitch>
              <duration>120</duration>
              <voice>1</voice>
              <type>eighth</type>
              <accidental cautionary="no">sharp</accidental>
              <stem>up</stem>
              <staff>1</staff>
              <notations>
              </notations>
          </note>
          <note>
              <rest/>
              <duration>120</duration>
              <voice>1</voice>
              <type>eighth</type>
              <staff>1</staff>
          </note>
          <note>
              <pitch>
                  <step>C</step>
                  <octave>5</octave>
              </pitch>
              <duration>60</duration>
              <voice>1</voice>
              <type>16th</type>
              <accidental cautionary="no">natural</accidental>
              <stem>down</stem>
              <staff>1</staff>
              <notations>
              </notations>
          </note>
          <note>
              <rest/>
              <duration>30</duration>
              <voice>1</voice>
              <type>32nd</type>
              <staff>1</staff>
          </note>
          <note>
              <pitch>
                  <step>F</step>
                  <alter>1</alter>
                  <octave>5</octave>
              </pitch>
              <duration>60</duration>
              <voice>1</voice>
              <type>16th</type>
              <accidental cautionary="no">sharp</accidental>
              <stem>down</stem>
              <staff>1</staff>
              <beam number="1">begin</beam>
              <notations>
              </notations>
          </note>
          <note>
              <pitch>
                  <step>F</step>
                  <octave>5</octave>
              </pitch>
              <duration>60</duration>
              <voice>1</voice>
              <type>16th</type>
              <accidental cautionary="no">natural</accidental>
              <stem>down</stem>
              <staff>1</staff>
              <beam number="1">continue</beam>
              <notations>
              </notations>
          </note>
          <note>
              <pitch>
                  <step>E</step>
                  <octave>5</octave>
              </pitch>
              <duration>60</duration>
              <voice>1</voice>
              <type>16th</type>
              <stem>down</stem>
              <staff>1</staff>
              <beam number="1">end</beam>
              <notations>
              </notations>
          </note>
          <note>
              <rest/>
              <duration>30</duration>
              <voice>1</voice>
              <type>32nd</type>
              <staff>1</staff>
          </note>
          <note>
              <pitch>
                  <step>A</step>
                  <alter>1</alter>
                  <octave>5</octave>
              </pitch>
              <duration>60</duration>
              <voice>1</voice>
              <type>16th</type>
              <accidental cautionary="no">sharp</accidental>
              <stem>down</stem>
              <staff>1</staff>
              <beam number="1">begin</beam>
              <notations>
              </notations>
          </note>
          <backup>
              <duration>60</duration>
          </backup>
          <forward>
              <duration>60</duration>
          </forward>
          <note>
              <pitch>
                  <step>G</step>
                  <alter>1</alter>
                  <octave>5</octave>
              </pitch>
              <duration>60</duration>
              <voice>1</voice>
              <type>16th</type>
              <accidental cautionary="no">sharp</accidental>
              <stem>down</stem>
              <staff>1</staff>
              <beam number="1">end</beam>
              <notations>
              </notations>
          </note>
      </measure>
      <measure  number="37">
          <attributes>
          </attributes>
          <note>
              <pitch>
                  <step>D</step>
                  <alter>1</alter>
                  <octave>5</octave>
              </pitch>
              <duration>120</duration>
              <voice>1</voice>
              <type>eighth</type>
              <accidental cautionary="no">sharp</accidental>
              <stem>down</stem>
              <staff>1</staff>
              <notations>
              </notations>
          </note>
          <note>
              <rest/>
              <duration>60</duration>
              <voice>1</voice>
              <type>16th</type>
              <staff>1</staff>
          </note>
          <note>
              <pitch>
                  <step>D</step>
                  <octave>5</octave>
              </pitch>
              <duration>120</duration>
              <voice>1</voice>
              <type>eighth</type>
              <accidental cautionary="no">natural</accidental>
              <stem>down</stem>
              <staff>1</staff>
              <notations>
              </notations>
          </note>
          <note>
              <rest/>
              <duration>60</duration>
              <voice>1</voice>
              <type>16th</type>
              <staff>1</staff>
          </note>
          <note>
              <pitch>
                  <step>C</step>
                  <alter>1</alter>
                  <octave>5</octave>
              </pitch>
              <duration>120</duration>
              <voice>1</voice>
              <type>eighth</type>
              <accidental cautionary="no">sharp</accidental>
              <stem>down</stem>
              <staff>1</staff>
              <notations>
              </notations>
          </note>
          <note>
              <pitch>
                  <step>C</step>
                  <octave>5</octave>
              </pitch>
              <duration>120</duration>
              <voice>1</voice>
              <type>eighth</type>
              <accidental cautionary="no">natural</accidental>
              <stem>down</stem>
              <staff>1</staff>
              <notations>
              </notations>
          </note>
          <note>
              <rest/>
              <duration>60</duration>
              <voice>1</voice>
              <type>16th</type>
              <staff>1</staff>
          </note>
          <note>
              <pitch>
                  <step>B</step>
                  <octave>4</octave>
              </pitch>
              <duration>120</duration>
              <voice>1</voice>
              <type>eighth</type>
              <stem>down</stem>
              <staff>1</staff>
              <notations>
              </notations>
          </note>
          <note>
              <rest/>
              <duration>60</duration>
              <voice>1</voice>
              <type>16th</type>
              <staff>1</staff>
          </note>
          <note>
              <pitch>
                  <step>B</step>
                  <alter>-1</alter>
                  <octave>4</octave>
              </pitch>
              <duration>120</duration>
              <voice>1</voice>
              <type>eighth</type>
              <accidental cautionary="no">flat</accidental>
              <stem>down</stem>
              <staff>1</staff>
              <notations>
              </notations>
          </note>
      </measure>
      <measure  number="38">
          <attributes>
          </attributes>
          <note>
              <rest/>
              <duration>960</duration>
              <staff>1</staff>
          </note>
          <note>
              <rest/>
              <duration>960</duration>
              <staff>2</staff>
          </note>
      </measure>
      <measure  number="39">
          <attributes>
          </attributes>
          <note>
              <rest/>
              <duration>960</duration>
              <staff>1</staff>
          </note>
          <note>
              <rest/>
              <duration>960</duration>
              <staff>2</staff>
          </note>
      </measure>
      <measure  number="40">
          <attributes>
          </attributes>
          <note>
              <rest/>
              <duration>960</duration>
              <staff>1</staff>
          </note>
          <note>
              <rest/>
              <duration>960</duration>
              <staff>2</staff>
          </note>
      </measure>
      <measure  number="41">
          <attributes>
          </attributes>
          <note>
              <rest/>
              <duration>960</duration>
              <staff>1</staff>
          </note>
          <note>
              <rest/>
              <duration>960</duration>
              <staff>2</staff>
          </note>
      </measure>
      <measure  number="42">
          <attributes>
          </attributes>
          <note>
              <rest/>
              <duration>960</duration>
              <staff>1</staff>
          </note>
          <note>
              <rest/>
              <duration>960</duration>
              <staff>2</staff>
          </note>
      </measure>
      <measure  number="43">
          <attributes>
          </attributes>
          <note>
              <rest/>
              <duration>960</duration>
              <staff>1</staff>
          </note>
          <note>
              <rest/>
              <duration>960</duration>
              <staff>2</staff>
          </note>
      </measure>
      <measure  number="44">
          <attributes>
          </attributes>
          <note>
              <rest/>
              <duration>960</duration>
              <staff>1</staff>
          </note>
          <note>
              <rest/>
              <duration>960</duration>
              <staff>2</staff>
          </note>
      </measure>
      <measure  number="45">
          <attributes>
          </attributes>
          <note>
              <rest/>
              <duration>960</duration>
              <staff>1</staff>
          </note>
          <note>
              <rest/>
              <duration>960</duration>
              <staff>2</staff>
          </note>
      </measure>
      <measure  number="46">
          <attributes>
          </attributes>
          <note>
              <rest/>
              <duration>960</duration>
              <staff>1</staff>
          </note>
          <note>
              <rest/>
              <duration>960</duration>
              <staff>2</staff>
          </note>
      </measure>
      <measure  number="47">
          <attributes>
          </attributes>
          <note>
              <rest/>
              <duration>960</duration>
              <staff>1</staff>
          </note>
          <note>
              <rest/>
              <duration>960</duration>
              <staff>2</staff>
          </note>
      </measure>
      <measure  number="48">
          <attributes>
          </attributes>
          <note>
              <rest/>
              <duration>960</duration>
              <staff>1</staff>
          </note>
          <note>
              <rest/>
              <duration>960</duration>
              <staff>2</staff>
          </note>
      </measure>
      <measure  number="49">
          <attributes>
          </attributes>
          <note>
              <rest/>
              <duration>960</duration>
              <staff>1</staff>
          </note>
          <note>
              <rest/>
              <duration>960</duration>
              <staff>2</staff>
          </note>
      </measure>
      <measure  number="50">
          <attributes>
          </attributes>
          <note>
              <rest/>
              <duration>960</duration>
              <staff>1</staff>
          </note>
          <note>
              <rest/>
              <duration>960</duration>
              <staff>2</staff>
          </note>
      </measure>
      <measure  number="51">
          <attributes>
          </attributes>
          <note>
              <rest/>
              <duration>960</duration>
              <staff>1</staff>
          </note>
          <note>
              <rest/>
              <duration>960</duration>
              <staff>2</staff>
          </note>
      </measure>
      <measure  number="52">
          <attributes>
          </attributes>
          <note>
              <rest/>
              <duration>960</duration>
              <staff>1</staff>
          </note>
          <note>
              <rest/>
              <duration>960</duration>
              <staff>2</staff>
          </note>
      </measure>
      <measure  number="53">
          <attributes>
          </attributes>
          <note>
              <rest/>
              <duration>960</duration>
              <staff>1</staff>
          </note>
          <note>
              <rest/>
              <duration>960</duration>
              <staff>2</staff>
          </note>
      </measure>
      <measure  number="54">
          <attributes>
          </attributes>
          <note>
              <rest/>
              <duration>960</duration>
              <staff>1</staff>
          </note>
          <note>
              <rest/>
              <duration>960</duration>
              <staff>2</staff>
          </note>
      </measure>
      <measure  number="55">
          <attributes>
          </attributes>
          <note>
              <rest/>
              <duration>960</duration>
              <staff>1</staff>
          </note>
          <note>
              <rest/>
              <duration>960</duration>
              <staff>2</staff>
          </note>
          <barline location="right">
              <bar-style>light-heavy</bar-style>
          </barline>
      </measure>
  </part>
</score-partwise>