<?xml version="1.0" encoding="UTF-8"?>
<!DOCTYPE score-partwise PUBLIC "-//Recordare//DTD MusicXML 3.0 Partwise//EN" "http://www.musicxml.org/dtds/partwise.dtd">
<score-partwise version="3.0">
  <movement-title>Quem queritis</movement-title>
  <identification>
      <creator type="composer">Thayse Vieira</creator>
      <rights>thaysebvieira@hotmail.com</rights>
      <encoding>
          <software>Encore</software>
      </encoding>
  </identification>
  <defaults>
      <scaling>
          <millimeters>6.35</millimeters>
          <tenths>40</tenths>
      </scaling>
  </defaults>
  <credit>
      <credit-words justify="right" valign="top">Thayse Vieira</credit-words>
  </credit>
  <credit>
      <credit-words justify="right" valign="top">thaysebvieira@hotmail.com</credit-words>
  </credit>
  <credit>
      <credit-words justify="center" valign="bottom">thaysebvieira@hotmail.com</credit-words>
  </credit>
  <credit>
      <credit-words justify="center" valign="bottom">thaysebvieira@ibest.com.br</credit-words>
  </credit>
  <part-list>
      <score-part id="P1">
          <part-name/>
          <score-instrument id="P1-I2">
              <instrument-name>NONE</instrument-name>
          </score-instrument>
          <midi-instrument id="P1-I2">
              <midi-channel>1</midi-channel>
          </midi-instrument>
      </score-part>
      <score-part id="P2">
          <part-name/>
          <score-instrument id="P2-I2">
              <instrument-name>NONE</instrument-name>
          </score-instrument>
          <midi-instrument id="P2-I2">
              <midi-channel>1</midi-channel>
          </midi-instrument>
      </score-part>
  </part-list>
  <!--
   =========================================================
   -->
  <part id="P1">
      <measure number="1">
          <attributes>
              <divisions>240</divisions>
              <key>
                  <fifths>0</fifths>
              </key>
              <time>
                  <beats>4</beats>
                  <beat-type>4</beat-type>
              </time>
              <staves>1</staves>
              <clef number="1">
                  <sign>G</sign>
                  <line>2</line>
              </clef>
              <transpose>
                  <chromatic>0</chromatic>
              </transpose>
          </attributes>
          <note>
              <pitch>
                  <step>C</step>
                  <octave>4</octave>
              </pitch>
              <duration>240</duration>
              <voice>1</voice>
              <type>quarter</type>
              <stem>up</stem>
              <staff>1</staff>
              <notations></notations>
          </note>
          <note>
              <pitch>
                  <step>C</step>
                  <octave>4</octave>
              </pitch>
              <duration>240</duration>
              <voice>1</voice>
              <type>quarter</type>
              <stem>up</stem>
              <staff>1</staff>
              <notations></notations>
          </note>
          <note>
              <pitch>
                  <step>D</step>
                  <octave>4</octave>
              </pitch>
              <duration>960</duration>
              <voice>1</voice>
              <type>whole</type>
              <stem>up</stem>
              <staff>1</staff>
              <notations></notations>
          </note>
      </measure>
      <measure number="2">
          <attributes></attributes>
          <note>
              <pitch>
                  <step>C</step>
                  <octave>4</octave>
              </pitch>
              <duration>240</duration>
              <voice>1</voice>
              <type>quarter</type>
              <stem>up</stem>
              <staff>1</staff>
              <notations></notations>
          </note>
          <note>
              <pitch>
                  <step>F</step>
                  <octave>4</octave>
              </pitch>
              <duration>240</duration>
              <voice>1</voice>
              <type>quarter</type>
              <stem>up</stem>
              <staff>1</staff>
              <notations></notations>
          </note>
          <note>
              <pitch>
                  <step>E</step>
                  <octave>4</octave>
              </pitch>
              <duration>960</duration>
              <voice>1</voice>
              <type>whole</type>
              <stem>up</stem>
              <staff>1</staff>
              <notations></notations>
          </note>
      </measure>
      <measure number="3">
          <attributes></attributes>
          <note>
              <pitch>
                  <step>C</step>
                  <octave>4</octave>
              </pitch>
              <duration>240</duration>
              <voice>1</voice>
              <type>quarter</type>
              <stem>up</stem>
              <staff>1</staff>
              <notations></notations>
          </note>
          <note>
              <pitch>
                  <step>C</step>
                  <octave>4</octave>
              </pitch>
              <duration>240</duration>
              <voice>1</voice>
              <type>quarter</type>
              <stem>up</stem>
              <staff>1</staff>
              <notations></notations>
          </note>
          <note>
              <pitch>
                  <step>D</step>
                  <octave>4</octave>
              </pitch>
              <duration>960</duration>
              <voice>1</voice>
              <type>whole</type>
              <stem>up</stem>
              <staff>1</staff>
              <notations></notations>
          </note>
      </measure>
      <measure number="4">
          <attributes></attributes>
          <note>
              <pitch>
                  <step>C</step>
                  <octave>4</octave>
              </pitch>
              <duration>240</duration>
              <voice>1</voice>
              <type>quarter</type>
              <stem>up</stem>
              <staff>1</staff>
              <notations></notations>
          </note>
          <note>
              <pitch>
                  <step>F</step>
                  <octave>4</octave>
              </pitch>
              <duration>240</duration>
              <voice>1</voice>
              <type>quarter</type>
              <stem>up</stem>
              <staff>1</staff>
              <notations></notations>
          </note>
          <note>
              <pitch>
                  <step>E</step>
                  <octave>4</octave>
              </pitch>
              <duration>960</duration>
              <voice>1</voice>
              <type>whole</type>
              <stem>up</stem>
              <staff>1</staff>
              <notations></notations>
          </note>
      </measure>
      <measure number="5">
          <attributes></attributes>
          <note>
              <pitch>
                  <step>C</step>
                  <octave>4</octave>
              </pitch>
              <duration>240</duration>
              <voice>1</voice>
              <type>quarter</type>
              <stem>up</stem>
              <staff>1</staff>
              <notations></notations>
          </note>
          <note>
              <pitch>
                  <step>C</step>
                  <octave>4</octave>
              </pitch>
              <duration>240</duration>
              <voice>1</voice>
              <type>quarter</type>
              <stem>up</stem>
              <staff>1</staff>
              <notations></notations>
          </note>
          <note>
              <pitch>
                  <step>C</step>
                  <octave>5</octave>
              </pitch>
              <duration>480</duration>
              <voice>1</voice>
              <type>half</type>
              <stem>down</stem>
              <staff>1</staff>
              <notations></notations>
          </note>
      </measure>
      <measure number="6">
          <attributes></attributes>
          <note>
              <pitch>
                  <step>A</step>
                  <octave>4</octave>
              </pitch>
              <duration>240</duration>
              <voice>1</voice>
              <type>quarter</type>
              <stem>up</stem>
              <staff>1</staff>
              <notations></notations>
          </note>
          <note>
              <pitch>
                  <step>F</step>
                  <octave>4</octave>
              </pitch>
              <duration>240</duration>
              <voice>1</voice>
              <type>quarter</type>
              <stem>up</stem>
              <staff>1</staff>
              <notations></notations>
          </note>
          <note>
              <pitch>
                  <step>E</step>
                  <octave>4</octave>
              </pitch>
              <duration>240</duration>
              <voice>1</voice>
              <type>quarter</type>
              <stem>up</stem>
              <staff>1</staff>
              <notations></notations>
          </note>
          <note>
              <pitch>
                  <step>D</step>
                  <octave>4</octave>
              </pitch>
              <duration>960</duration>
              <voice>1</voice>
              <type>whole</type>
              <stem>up</stem>
              <staff>1</staff>
              <notations></notations>
          </note>
      </measure>
      <measure number="7">
          <attributes></attributes>
          <note>
              <pitch>
                  <step>B</step>
                  <alter>-1</alter>
                  <octave>4</octave>
              </pitch>
              <duration>240</duration>
              <voice>1</voice>
              <type>quarter</type>
              <accidental cautionary="no">flat</accidental>
              <stem>down</stem>
              <staff>1</staff>
              <notations></notations>
          </note>
          <note>
              <pitch>
                  <step>B</step>
                  <alter>-1</alter>
                  <octave>4</octave>
              </pitch>
              <duration>240</duration>
              <voice>1</voice>
              <type>quarter</type>
              <stem>down</stem>
              <staff>1</staff>
              <notations></notations>
          </note>
          <note>
              <pitch>
                  <step>A</step>
                  <octave>4</octave>
              </pitch>
              <duration>480</duration>
              <voice>1</voice>
              <type>half</type>
              <stem>up</stem>
              <staff>1</staff>
              <notations></notations>
          </note>
      </measure>
      <measure number="8">
          <attributes></attributes>
          <note>
              <pitch>
                  <step>F</step>
                  <octave>4</octave>
              </pitch>
              <duration>240</duration>
              <voice>1</voice>
              <type>quarter</type>
              <stem>up</stem>
              <staff>1</staff>
              <notations></notations>
          </note>
          <note>
              <pitch>
                  <step>G</step>
                  <octave>4</octave>
              </pitch>
              <duration>240</duration>
              <voice>1</voice>
              <type>quarter</type>
              <stem>up</stem>
              <staff>1</staff>
              <notations></notations>
          </note>
          <note>
              <pitch>
                  <step>F</step>
                  <octave>4</octave>
              </pitch>
              <duration>960</duration>
              <voice>1</voice>
              <type>whole</type>
              <stem>up</stem>
              <staff>1</staff>
              <notations></notations>
          </note>
      </measure>
      <measure number="9">
          <attributes></attributes>
          <note>
              <rest/>
              <duration>960</duration>
              <voice>1</voice>
              <type>whole</type>
              <staff>1</staff>
          </note>
      </measure>
      <measure number="10">
          <attributes></attributes>
          <note>
              <pitch>
                  <step>C</step>
                  <octave>4</octave>
              </pitch>
              <duration>240</duration>
              <voice>1</voice>
              <type>quarter</type>
              <stem>up</stem>
              <staff>1</staff>
              <notations></notations>
          </note>
          <note>
              <pitch>
                  <step>C</step>
                  <octave>4</octave>
              </pitch>
              <duration>240</duration>
              <voice>1</voice>
              <type>quarter</type>
              <stem>up</stem>
              <staff>1</staff>
              <notations></notations>
          </note>
          <note>
              <pitch>
                  <step>D</step>
                  <octave>4</octave>
              </pitch>
              <duration>960</duration>
              <voice>1</voice>
              <type>whole</type>
              <stem>up</stem>
              <staff>1</staff>
              <notations></notations>
          </note>
      </measure>
      <measure number="11">
          <attributes></attributes>
          <note>
              <pitch>
                  <step>C</step>
                  <octave>4</octave>
              </pitch>
              <duration>240</duration>
              <voice>1</voice>
              <type>quarter</type>
              <stem>up</stem>
              <staff>1</staff>
              <notations></notations>
          </note>
          <note>
              <pitch>
                  <step>F</step>
                  <octave>4</octave>
              </pitch>
              <duration>240</duration>
              <voice>1</voice>
              <type>quarter</type>
              <stem>up</stem>
              <staff>1</staff>
              <notations></notations>
          </note>
          <note>
              <pitch>
                  <step>E</step>
                  <octave>4</octave>
              </pitch>
              <duration>960</duration>
              <voice>1</voice>
              <type>whole</type>
              <stem>up</stem>
              <staff>1</staff>
              <notations></notations>
          </note>
      </measure>
      <measure number="12">
          <attributes></attributes>
          <note>
              <pitch>
                  <step>C</step>
                  <octave>4</octave>
              </pitch>
              <duration>240</duration>
              <voice>1</voice>
              <type>quarter</type>
              <stem>up</stem>
              <staff>1</staff>
              <notations></notations>
          </note>
          <note>
              <pitch>
                  <step>C</step>
                  <octave>4</octave>
              </pitch>
              <duration>240</duration>
              <voice>1</voice>
              <type>quarter</type>
              <stem>up</stem>
              <staff>1</staff>
              <notations></notations>
          </note>
          <note>
              <pitch>
                  <step>D</step>
                  <octave>4</octave>
              </pitch>
              <duration>960</duration>
              <voice>1</voice>
              <type>whole</type>
              <stem>up</stem>
              <staff>1</staff>
              <notations></notations>
          </note>
      </measure>
      <measure number="13">
          <attributes></attributes>
          <note>
              <pitch>
                  <step>C</step>
                  <octave>4</octave>
              </pitch>
              <duration>240</duration>
              <voice>1</voice>
              <type>quarter</type>
              <stem>up</stem>
              <staff>1</staff>
              <notations></notations>
          </note>
          <note>
              <pitch>
                  <step>F</step>
                  <octave>4</octave>
              </pitch>
              <duration>240</duration>
              <voice>1</voice>
              <type>quarter</type>
              <stem>up</stem>
              <staff>1</staff>
              <notations></notations>
          </note>
          <note>
              <pitch>
                  <step>E</step>
                  <octave>4</octave>
              </pitch>
              <duration>960</duration>
              <voice>1</voice>
              <type>whole</type>
              <stem>up</stem>
              <staff>1</staff>
              <notations></notations>
          </note>
      </measure>
      <measure number="14">
          <attributes></attributes>
          <note>
              <pitch>
                  <step>C</step>
                  <octave>4</octave>
              </pitch>
              <duration>240</duration>
              <voice>1</voice>
              <type>quarter</type>
              <stem>up</stem>
              <staff>1</staff>
              <notations></notations>
          </note>
          <note>
              <pitch>
                  <step>C</step>
                  <octave>4</octave>
              </pitch>
              <duration>240</duration>
              <voice>1</voice>
              <type>quarter</type>
              <stem>up</stem>
              <staff>1</staff>
              <notations></notations>
          </note>
          <note>
              <pitch>
                  <step>C</step>
                  <octave>5</octave>
              </pitch>
              <duration>480</duration>
              <voice>1</voice>
              <type>half</type>
              <stem>down</stem>
              <staff>1</staff>
              <notations></notations>
          </note>
      </measure>
      <measure number="15">
          <attributes></attributes>
          <note>
              <pitch>
                  <step>A</step>
                  <octave>4</octave>
              </pitch>
              <duration>240</duration>
              <voice>1</voice>
              <type>quarter</type>
              <stem>up</stem>
              <staff>1</staff>
              <notations></notations>
          </note>
          <note>
              <pitch>
                  <step>F</step>
                  <octave>4</octave>
              </pitch>
              <duration>240</duration>
              <voice>1</voice>
              <type>quarter</type>
              <stem>up</stem>
              <staff>1</staff>
              <notations></notations>
          </note>
          <note>
              <pitch>
                  <step>E</step>
                  <octave>4</octave>
              </pitch>
              <duration>240</duration>
              <voice>1</voice>
              <type>quarter</type>
              <stem>up</stem>
              <staff>1</staff>
              <notations></notations>
          </note>
          <note>
              <pitch>
                  <step>D</step>
                  <octave>4</octave>
              </pitch>
              <duration>960</duration>
              <voice>1</voice>
              <type>whole</type>
              <stem>up</stem>
              <staff>1</staff>
              <notations></notations>
          </note>
      </measure>
      <measure number="16">
          <attributes></attributes>
          <note>
              <pitch>
                  <step>B</step>
                  <alter>-1</alter>
                  <octave>4</octave>
              </pitch>
              <duration>240</duration>
              <voice>1</voice>
              <type>quarter</type>
              <accidental cautionary="no">flat</accidental>
              <stem>down</stem>
              <staff>1</staff>
              <notations></notations>
          </note>
          <note>
              <pitch>
                  <step>B</step>
                  <alter>-1</alter>
                  <octave>4</octave>
              </pitch>
              <duration>240</duration>
              <voice>1</voice>
              <type>quarter</type>
              <stem>down</stem>
              <staff>1</staff>
              <notations></notations>
          </note>
          <note>
              <pitch>
                  <step>A</step>
                  <octave>4</octave>
              </pitch>
              <duration>480</duration>
              <voice>1</voice>
              <type>half</type>
              <stem>up</stem>
              <staff>1</staff>
              <notations></notations>
          </note>
      </measure>
      <measure number="17">
          <attributes></attributes>
          <note>
              <pitch>
                  <step>F</step>
                  <octave>4</octave>
              </pitch>
              <duration>240</duration>
              <voice>1</voice>
              <type>quarter</type>
              <stem>up</stem>
              <staff>1</staff>
              <notations></notations>
          </note>
          <note>
              <pitch>
                  <step>G</step>
                  <octave>4</octave>
              </pitch>
              <duration>240</duration>
              <voice>1</voice>
              <type>quarter</type>
              <stem>up</stem>
              <staff>1</staff>
              <notations></notations>
          </note>
          <note>
              <pitch>
                  <step>F</step>
                  <octave>4</octave>
              </pitch>
              <duration>960</duration>
              <voice>1</voice>
              <type>whole</type>
              <stem>up</stem>
              <staff>1</staff>
              <notations></notations>
          </note>
      </measure>
      <measure number="18">
          <attributes></attributes>
          <note>
              <rest/>
              <duration>960</duration>
              <voice>1</voice>
              <type>whole</type>
              <staff>1</staff>
          </note>
          <barline location="right">
              <bar-style>light-heavy</bar-style>
          </barline>
      </measure>
  </part>
  <part id="P2">
      <measure number="1">
          <attributes>
              <divisions>240</divisions>
              <key>
                  <fifths>0</fifths>
              </key>
              <time>
                  <beats>4</beats>
                  <beat-type>4</beat-type>
              </time>
              <staves>1</staves>
              <clef number="1">
                  <sign>G</sign>
                  <line>2</line>
              </clef>
              <transpose>
                  <chromatic>0</chromatic>
              </transpose>
          </attributes>
          <note>
              <rest/>
              <duration>960</duration>
              <staff>1</staff>
          </note>
      </measure>
      <measure number="2">
          <attributes></attributes>
          <note>
              <rest/>
              <duration>960</duration>
              <staff>1</staff>
          </note>
      </measure>
      <measure number="3">
          <attributes></attributes>
          <note>
              <rest/>
              <duration>960</duration>
              <staff>1</staff>
          </note>
      </measure>
      <measure number="4">
          <attributes></attributes>
          <note>
              <rest/>
              <duration>960</duration>
              <staff>1</staff>
          </note>
      </measure>
      <measure number="5">
          <attributes></attributes>
          <note>
              <rest/>
              <duration>960</duration>
              <staff>1</staff>
          </note>
      </measure>
      <measure number="6">
          <attributes></attributes>
          <note>
              <rest/>
              <duration>960</duration>
              <staff>1</staff>
          </note>
      </measure>
      <measure number="7">
          <attributes></attributes>
          <note>
              <rest/>
              <duration>960</duration>
              <staff>1</staff>
          </note>
      </measure>
      <measure number="8">
          <attributes></attributes>
          <note>
              <rest/>
              <duration>960</duration>
              <staff>1</staff>
          </note>
      </measure>
      <measure number="9">
          <attributes></attributes>
          <note>
              <rest/>
              <duration>960</duration>
              <staff>1</staff>
          </note>
      </measure>
      <measure number="10">
          <attributes></attributes>
          <note>
              <rest/>
              <duration>960</duration>
              <staff>1</staff>
          </note>
      </measure>
      <measure number="11">
          <attributes></attributes>
          <note>
              <rest/>
              <duration>960</duration>
              <staff>1</staff>
          </note>
      </measure>
      <measure number="12">
          <attributes></attributes>
          <note>
              <rest/>
              <duration>960</duration>
              <staff>1</staff>
          </note>
      </measure>
      <measure number="13">
          <attributes></attributes>
          <note>
              <rest/>
              <duration>960</duration>
              <staff>1</staff>
          </note>
      </measure>
      <measure number="14">
          <attributes></attributes>
          <note>
              <rest/>
              <duration>960</duration>
              <staff>1</staff>
          </note>
      </measure>
      <measure number="15">
          <attributes></attributes>
          <note>
              <rest/>
              <duration>960</duration>
              <staff>1</staff>
          </note>
      </measure>
      <measure number="16">
          <attributes></attributes>
          <note>
              <rest/>
              <duration>960</duration>
              <staff>1</staff>
          </note>
      </measure>
      <measure number="17">
          <attributes></attributes>
          <note>
              <rest/>
              <duration>960</duration>
              <staff>1</staff>
          </note>
      </measure>
      <measure number="18">
          <attributes></attributes>
          <note>
              <rest/>
              <duration>960</duration>
              <staff>1</staff>
          </note>
          <barline location="right">
              <bar-style>light-heavy</bar-style>
          </barline>
      </measure>
  </part>
</score-partwise>